<svg xmlns="http://www.w3.org/2000/svg" width="1492.45" height="170.82" viewBox="0 0 1492.45 170.82"><g id="レイヤー_2" data-name="レイヤー 2"><g id="レイヤー_1-2" data-name="レイヤー 1"><path d="M233.75,79.74q-2.59,0-8.85-9.18t-6.21-12q0-1,4.46-2.85a6.19,6.19,0,0,0,3.33-2.94,10.52,10.52,0,0,0,1.06-4.94,12,12,0,0,0-.35-2.84,8.26,8.26,0,0,0-1.13-2.59,6.18,6.18,0,0,0-1.94-1.87,5.77,5.77,0,0,0-2.78-.78,8,8,0,0,0-2,.26,6.83,6.83,0,0,0-1.81.75,4.7,4.7,0,0,0-1.35,1.19,2.56,2.56,0,0,0-.55,1.62V73.79a2.43,2.43,0,0,0,2,2.39c1.33.43,2,1,2,1.81,0,1.17-.54,1.75-1.61,1.75H202.86c-1.07,0-1.61-.58-1.61-1.75,0-.73.67-1.31,2-1.74a2.5,2.5,0,0,0,2.07-2.46V43.56c0-.78-.65-1.36-1.94-1.75s-1.87-1-1.87-1.94c0-.56.42-1.06,1.26-1.51A15,15,0,0,1,206,37.13a44,44,0,0,1,4.36-1c1.59-.28,3.11-.51,4.55-.68s2.74-.3,3.88-.39,1.93-.13,2.36-.13a26.37,26.37,0,0,1,6,.71,17.66,17.66,0,0,1,5.39,2.23,12.28,12.28,0,0,1,3.88,3.91A10.58,10.58,0,0,1,238,47.5a8.88,8.88,0,0,1-.75,3.84,10.12,10.12,0,0,1-2,2.84,17.55,17.55,0,0,1-2.87,2.36c-1.1.74-2.25,1.53-3.46,2.39A23,23,0,0,0,231,63.84a41.3,41.3,0,0,0,3.56,5.3,27.91,27.91,0,0,0,4.55,4.46c1.53,1.16,2.94,2.18,4.23,3a2,2,0,0,1,.88,1.13,1.23,1.23,0,0,1-.23,1,2.67,2.67,0,0,1-.91.71,2.47,2.47,0,0,1-1.09.29Z" fill="#231815"/><path d="M257.33,56.67a6,6,0,0,0,2.27.45c.38,0,.92,0,1.61-.09s1.25-.1,1.68-.1a4.61,4.61,0,0,1,2.29.49,1.83,1.83,0,0,1,.88,1.77,1.76,1.76,0,0,1-.91,1.75,5.55,5.55,0,0,1-2.45.45,22.38,22.38,0,0,1-2.26-.1l-1.1-.1a4.65,4.65,0,0,0-1.33.26,1.25,1.25,0,0,0-.8,1.36V74.12c0,.9.18,1.42.54,1.55a6.52,6.52,0,0,0,1.59.26c.77,0,1.73.07,2.87.09s2.25,0,3.33,0a8.39,8.39,0,0,0,2.46-.48,5.4,5.4,0,0,0,2-1.26c.64-.65,1.19-1.17,1.65-1.55s.74-.59.87-.59a1.57,1.57,0,0,1,1,.23,1,1,0,0,1,.45.87,3.52,3.52,0,0,1-.25,1c-.18.47-.39,1-.65,1.58s-.54,1.15-.84,1.71a7.21,7.21,0,0,1-.84,1.29,2.28,2.28,0,0,1-1.2.71,5.35,5.35,0,0,1-.93.2H247.06a1.15,1.15,0,0,1-1-.42,1.85,1.85,0,0,1-.32-1.13.78.78,0,0,1,.52-.71c.34-.18.71-.35,1.1-.52a4.34,4.34,0,0,0,1.09-.71A1.6,1.6,0,0,0,249,75V48.72a1.52,1.52,0,0,0-.52-1.22,6.8,6.8,0,0,0-1.09-.78l-1.1-.61a.89.89,0,0,1-.52-.81c0-.9.43-1.36,1.29-1.36h21.13a2.46,2.46,0,0,1,1.45.49,5.1,5.1,0,0,1,1.23,1.26,7.55,7.55,0,0,1,.91,1.74,5.76,5.76,0,0,1,.35,1.94,1.24,1.24,0,0,1-.16.52,1.42,1.42,0,0,1-.42.51,1.39,1.39,0,0,1-.58.26.82.82,0,0,1-.71-.26c-1-.77-1.78-1.36-2.36-1.77a7.28,7.28,0,0,0-1.84-.94,9.16,9.16,0,0,0-2.3-.39c-.88,0-2.07-.06-3.58-.06a3.8,3.8,0,0,0-2.43.52,1.85,1.85,0,0,0-.54,1.42c0,1.68,0,3,0,4s0,1.7,0,2.2,0,.83,0,1S257.33,56.63,257.33,56.67Z" fill="#231815"/><path d="M295.33,79.74c-1,0-1.48-.48-1.48-1.42,0-.56.36-1,1.09-1.23a5.13,5.13,0,0,0,1.88-1.1,1.22,1.22,0,0,0,.38-1.36l-1.55-5a11.8,11.8,0,0,0-3.1-.26,7.2,7.2,0,0,1-3.81,0c-1-.3-1.48-.86-1.48-1.68a1.41,1.41,0,0,1,.8-1.45,6,6,0,0,1,2.36-.36l1.91,0a1.85,1.85,0,0,0,1.52-.48,14,14,0,0,0-.59-2.17c-.34-1-.72-2.16-1.13-3.32s-.8-2.25-1.19-3.27l-.78-2c-.43.95-1,2.29-1.58,4s-1.37,3.84-2.23,6.3q-1.49,4.13-2.13,6.68a17.85,17.85,0,0,0-.65,3.46A1.77,1.77,0,0,0,284.93,77c.95.39,1.42.84,1.42,1.36,0,.94-.49,1.42-1.49,1.42h-8.39c-.48,0-.77-.13-.88-.39a3.12,3.12,0,0,1-.16-1.1c.95-.73,1.82-1.44,2.62-2.13a5.4,5.4,0,0,0,1.58-2.07q2.52-7.11,4.72-14.15t4.59-14.28a2.5,2.5,0,0,1,1.16-1.38,3.38,3.38,0,0,1,1.74-.49,7,7,0,0,1,2.3.42,2.29,2.29,0,0,1,1.51,1.26l5,14.12q2.49,7,4.94,14.11a3,3,0,0,0,1.07,1.3c.49.34,1.22.88,2.16,1.61l1.3.94c.38.28.58.55.58.81a1.26,1.26,0,0,1-1.42,1.42Z" fill="#231815"/><path d="M323.64,74.12a4.44,4.44,0,0,0,.42,1.29c.19.39.65.58,1.38.58q2.26,0,3.66,0l2.22,0q.84,0,1.23,0l.71,0a3.76,3.76,0,0,0,2.2-.94A29.17,29.17,0,0,0,338,72.89a2.57,2.57,0,0,1,1.55-.81c.47,0,.71.36.71,1.13a10.86,10.86,0,0,1-1.1,3l-.68,1.48a6.16,6.16,0,0,1-.61,1.1,2.06,2.06,0,0,1-.84.68,3.27,3.27,0,0,1-1.29.23H313.43a1.14,1.14,0,0,1-1.29-1.29c0-.61.53-1.06,1.61-1.36A2.15,2.15,0,0,0,315.37,75V48.72a1.94,1.94,0,0,0-1.62-2c-1-.39-1.55-.86-1.55-1.42,0-.9.43-1.36,1.29-1.36h12.15c.86,0,1.29.46,1.29,1.36,0,.6-.56,1.06-1.68,1.36a2.09,2.09,0,0,0-1.55,2.06Z" fill="#231815"/><path d="M394.52,64.94c-.43,0-.94,0-1.55-.09a7.89,7.89,0,0,1-1.71-.39,4.78,4.78,0,0,1-1.39-.78,1.55,1.55,0,0,1-.58-1.26,2,2,0,0,1,.94-1.68,5.72,5.72,0,0,1,3.13-.64,5.67,5.67,0,0,0,3.17-.81,5.82,5.82,0,0,0,1.93-2.13,9.16,9.16,0,0,0,1-3,17.17,17.17,0,0,0,.2-3.39,19.38,19.38,0,0,0-.55-3.94,12.33,12.33,0,0,0-1.42-3.46,8.08,8.08,0,0,0-2.3-2.45A5.45,5.45,0,0,0,392.2,40,5.13,5.13,0,0,0,389,41.1a3.42,3.42,0,0,0-1.42,2.84V73.79a2.47,2.47,0,0,0,2,2.46c1.33.43,2,1,2,1.81,0,1.12-.54,1.68-1.61,1.68H374.88c-1.07,0-1.61-.56-1.61-1.68,0-.73.66-1.32,2-1.75a2.51,2.51,0,0,0,2-2.52V43.94c0-.77-.62-1.35-1.87-1.74s-1.87-1-1.87-1.94a2,2,0,0,1,1.19-1.61,13.27,13.27,0,0,1,3-1.26,34,34,0,0,1,4-.94c1.49-.26,2.91-.46,4.27-.61s2.57-.27,3.65-.36,1.83-.13,2.26-.13a24.24,24.24,0,0,1,6.33.87,19.74,19.74,0,0,1,5.82,2.62,14.53,14.53,0,0,1,4.26,4.46A11.9,11.9,0,0,1,410,49.69a18.76,18.76,0,0,1-1.13,6.79,12.7,12.7,0,0,1-3.2,4.81,12.86,12.86,0,0,1-4.91,2.81A19,19,0,0,1,394.52,64.94Z" fill="#231815"/><path d="M438.66,79.74q-2,0-7.11-7.37-4.91-7.29-4.91-9.62c0-.56,1.18-1.32,3.55-2.27a4.84,4.84,0,0,0,2.65-2.35,8.7,8.7,0,0,0,.84-4,8.88,8.88,0,0,0-.29-2.29,6.48,6.48,0,0,0-.9-2,5.09,5.09,0,0,0-1.55-1.48,4.56,4.56,0,0,0-2.23-.65,6.28,6.28,0,0,0-1.55.2,5.43,5.43,0,0,0-1.46.58,3.34,3.34,0,0,0-1.1,1,2.12,2.12,0,0,0-.42,1.29V75a2,2,0,0,0,1.62,1.93c1.08.39,1.62.87,1.62,1.43,0,.94-.44,1.42-1.3,1.42H413.91c-.86,0-1.29-.48-1.29-1.42,0-.61.54-1.06,1.62-1.36a2.09,2.09,0,0,0,1.67-2V50.73c0-.56-.51-1-1.55-1.36s-1.55-.82-1.55-1.55c0-.43.35-.84,1-1.23a11.69,11.69,0,0,1,2.61-1c1.06-.28,2.21-.53,3.46-.74s2.47-.4,3.65-.55S425.8,44,426.7,44s1.53-.1,1.88-.1a20.22,20.22,0,0,1,4.84.58,14.38,14.38,0,0,1,4.3,1.78,9.76,9.76,0,0,1,3.1,3.1,8.37,8.37,0,0,1,1.2,4.55,7.41,7.41,0,0,1-.58,3.07,8.32,8.32,0,0,1-1.59,2.3,13.77,13.77,0,0,1-2.32,1.9c-.89.58-1.8,1.22-2.75,1.91a24.35,24.35,0,0,0,4.59,8.2A19.88,19.88,0,0,0,443,74.79c1.24.93,2.39,1.76,3.42,2.49a1.46,1.46,0,0,1,.71.87,1,1,0,0,1-.19.78,1.86,1.86,0,0,1-.75.58,2.09,2.09,0,0,1-.87.23Z" fill="#231815"/><path d="M448.35,62a21.57,21.57,0,0,1,1.17-7.2,16.23,16.23,0,0,1,3.39-5.75,15.77,15.77,0,0,1,5.49-3.81,18.83,18.83,0,0,1,7.46-1.39,19.1,19.1,0,0,1,7.5,1.39,15.53,15.53,0,0,1,5.52,3.81,16.23,16.23,0,0,1,3.39,5.75,23,23,0,0,1,0,14.47,16.14,16.14,0,0,1-3.39,5.75,15.55,15.55,0,0,1-5.52,3.82,19.29,19.29,0,0,1-7.5,1.38,19,19,0,0,1-7.46-1.38,15.79,15.79,0,0,1-5.49-3.82,16.14,16.14,0,0,1-3.39-5.75A21.78,21.78,0,0,1,448.35,62Zm26.82-.12a28.62,28.62,0,0,0-.45-5,16.1,16.1,0,0,0-1.52-4.56A9,9,0,0,0,470.32,49a7.59,7.59,0,0,0-4.46-1.26A7.31,7.31,0,0,0,461.47,49a9.3,9.3,0,0,0-2.81,3.29,15.79,15.79,0,0,0-1.52,4.56,28.62,28.62,0,0,0-.45,5,30.44,30.44,0,0,0,.45,5.23,15.79,15.79,0,0,0,1.52,4.62,9.71,9.71,0,0,0,2.81,3.33,7.19,7.19,0,0,0,4.39,1.29,7.47,7.47,0,0,0,4.46-1.29,9.31,9.31,0,0,0,2.88-3.36,16.51,16.51,0,0,0,1.52-4.62,29.24,29.24,0,0,0,.45-5.08Z" fill="#231815"/><path d="M500,80.12a43.67,43.67,0,0,1-7.68-.77q-6-1-5.95-3c0-.17.41-.56,1.23-1.16a5.12,5.12,0,0,0,.87-1,2.26,2.26,0,0,0,.36-1.26V50.34c0-.56-.54-1-1.62-1.36s-1.48-.9-1.48-1.55q0-.7,1-1.29a10.29,10.29,0,0,1,2.43-1,31.15,31.15,0,0,1,3.23-.74c1.18-.22,2.32-.39,3.42-.52s2.08-.23,2.94-.29,1.47-.1,1.81-.1a27,27,0,0,1,4.46.39,14.48,14.48,0,0,1,4.23,1.36,8.79,8.79,0,0,1,3.13,2.58,6.43,6.43,0,0,1,1.23,4,6.22,6.22,0,0,1-.48,2.39,8.68,8.68,0,0,1-1.33,2.16,10.7,10.7,0,0,1-1.9,1.78,8.16,8.16,0,0,1-2.3,1.16V60a20.93,20.93,0,0,1,2.81,1.39,10.44,10.44,0,0,1,2.43,1.9,9.25,9.25,0,0,1,1.68,2.49,7.36,7.36,0,0,1,.64,3.13,12.45,12.45,0,0,1-1,5.27,8.32,8.32,0,0,1-2.94,3.46,13.77,13.77,0,0,1-4.75,1.9A30.2,30.2,0,0,1,500,80.12Zm-1.29-19.77c0-.25.3-.6.91-1a21.43,21.43,0,0,1,2.52-1.48,5.68,5.68,0,0,0,3.16-5.3,7,7,0,0,0-.26-1.88,6,6,0,0,0-.77-1.74A4.3,4.3,0,0,0,503,47.66a3.53,3.53,0,0,0-1.88-.49,5.05,5.05,0,0,0-2.9.84A2.73,2.73,0,0,0,497,50.4V73.34a2.26,2.26,0,0,0,.42,1.36,2.86,2.86,0,0,0,1,.9,5.18,5.18,0,0,0,1.39.49,8.16,8.16,0,0,0,1.55.16,4.55,4.55,0,0,0,4.17-2,9.21,9.21,0,0,0,1.26-5,7.41,7.41,0,0,0-1-4.07,6.11,6.11,0,0,0-2.84-2.39c-1.42-.65-2.48-1.15-3.16-1.52S498.69,60.61,498.69,60.35Z" fill="#231815"/><path d="M529.19,74.12a5.14,5.14,0,0,0,.42,1.29c.2.39.66.58,1.39.58,1.51,0,2.73,0,3.65,0l2.23,0q.84,0,1.23,0l.71,0a3.76,3.76,0,0,0,2.2-.94,29.17,29.17,0,0,0,2.52-2.16,2.55,2.55,0,0,1,1.55-.81c.47,0,.71.36.71,1.13a10.86,10.86,0,0,1-1.1,3L544,77.73a6.16,6.16,0,0,1-.61,1.1,2.06,2.06,0,0,1-.84.68,3.27,3.27,0,0,1-1.29.23H519a1.14,1.14,0,0,1-1.29-1.29c0-.61.54-1.06,1.62-1.36A2.15,2.15,0,0,0,520.92,75V48.72a1.94,1.94,0,0,0-1.61-2c-1-.39-1.55-.86-1.55-1.42,0-.9.43-1.36,1.29-1.36H531.2c.86,0,1.29.46,1.29,1.36,0,.6-.56,1.06-1.68,1.36a2.09,2.09,0,0,0-1.55,2.06Z" fill="#231815"/><path d="M558.85,56.67a6,6,0,0,0,2.26.45q.58,0,1.62-.09c.69-.07,1.25-.1,1.68-.1a4.61,4.61,0,0,1,2.29.49,1.85,1.85,0,0,1,.88,1.77,1.78,1.78,0,0,1-.91,1.75,5.55,5.55,0,0,1-2.45.45c-.82,0-1.58,0-2.27-.1l-1.09-.1a4.65,4.65,0,0,0-1.33.26,1.25,1.25,0,0,0-.81,1.36V74.12c0,.9.19,1.42.55,1.55a6.52,6.52,0,0,0,1.59.26c.77,0,1.73.07,2.87.09s2.25,0,3.33,0a8.26,8.26,0,0,0,2.45-.48,5.36,5.36,0,0,0,2-1.26c.64-.65,1.19-1.17,1.65-1.55s.74-.59.87-.59a1.58,1.58,0,0,1,1,.23,1,1,0,0,1,.45.87,3.31,3.31,0,0,1-.26,1c-.17.47-.38,1-.64,1.58s-.54,1.15-.84,1.71a7.21,7.21,0,0,1-.84,1.29,2.28,2.28,0,0,1-1.2.71,5.55,5.55,0,0,1-.93.2H548.58a1.15,1.15,0,0,1-1-.42,1.85,1.85,0,0,1-.32-1.13.79.79,0,0,1,.51-.71c.35-.18.72-.35,1.1-.52a4.22,4.22,0,0,0,1.1-.71,1.6,1.6,0,0,0,.52-1.29V48.72A1.52,1.52,0,0,0,550,47.5a6.45,6.45,0,0,0-1.1-.78l-1.1-.61a.9.9,0,0,1-.51-.81c0-.9.43-1.36,1.29-1.36h21.13a2.48,2.48,0,0,1,1.45.49,5.28,5.28,0,0,1,1.23,1.26,7.53,7.53,0,0,1,.9,1.74,5.54,5.54,0,0,1,.36,1.94,1.41,1.41,0,0,1-.16.52,1.42,1.42,0,0,1-.42.51,1.44,1.44,0,0,1-.58.26.85.85,0,0,1-.72-.26c-1-.77-1.77-1.36-2.35-1.77a7.45,7.45,0,0,0-1.84-.94,9.24,9.24,0,0,0-2.3-.39c-.88,0-2.08-.06-3.58-.06a3.8,3.8,0,0,0-2.43.52,1.86,1.86,0,0,0-.55,1.42c0,1.68,0,3,0,4s0,1.7,0,2.2,0,.83,0,1S558.85,56.63,558.85,56.67Z" fill="#231815"/><path d="M605.51,55.25a31.58,31.58,0,0,0-2.13,3c-.74,1.16-1.5,2.36-2.3,3.58s-1.64,2.46-2.55,3.69a22.44,22.44,0,0,1-2.91,3.26,11.29,11.29,0,0,1-1.71-1.71c-.67-.8-1.38-1.67-2.13-2.62s-1.51-1.94-2.26-3l-2.07-2.81c-.62-.84-1.16-1.55-1.61-2.14a3.64,3.64,0,0,0-.88-.93,1.87,1.87,0,0,0-.09.55c0,.28,0,1,0,2.26V75a1.6,1.6,0,0,0,.49,1.09,4.91,4.91,0,0,0,1.32,1l1,.62a.82.82,0,0,1,.45.68,3.2,3.2,0,0,1-.38,1,1.06,1.06,0,0,1-1,.42h-8.27c-.86,0-1.3-.48-1.3-1.42,0-.35.54-.78,1.62-1.3s1.61-1.24,1.61-2.06V48.72a2.07,2.07,0,0,0-1.61-2c-1.08-.3-1.62-.77-1.62-1.42a2.46,2.46,0,0,0,.55-.87.77.77,0,0,1,.75-.55h6.46a8.54,8.54,0,0,1,1.68,1.55c.69.78,1.42,1.68,2.19,2.71s1.59,2.15,2.43,3.33l2.36,3.33c.73,1,1.38,1.94,2,2.71A7.77,7.77,0,0,0,596.85,59a3.54,3.54,0,0,0,1-1,23.84,23.84,0,0,0,1.52-2.19c.54-.86,1.1-1.79,1.68-2.78l1.59-2.71c.47-.82.84-1.5,1.13-2a3.85,3.85,0,0,1,.42-.74c1.63-2.41,3-3.62,4-3.62h7.43c.86,0,1.29.47,1.29,1.42,0,.35-.53.8-1.61,1.36a2.24,2.24,0,0,0-1.55,2.06V75c0,.82.58,1.5,1.74,2.06a7.23,7.23,0,0,0,1,.52.76.76,0,0,1,.45.78,1.74,1.74,0,0,1-.29,1,1.1,1.1,0,0,1-1,.45H603.57c-.82,0-1.23-.48-1.23-1.42,0-.35.54-.78,1.62-1.3A2.42,2.42,0,0,0,605.51,75Z" fill="#231815"/><path d="M667,80.32a10,10,0,0,1-2-.29l-2.65-.62c-.91-.21-1.77-.39-2.59-.54a2.92,2.92,0,0,0-3.26,1,1.76,1.76,0,0,1-1.32.71c-.65,0-1.22-.47-1.72-1.39a16.94,16.94,0,0,1-1.26-3.2,28.3,28.3,0,0,1-.77-3.55,18.47,18.47,0,0,1-.26-2.52,1.4,1.4,0,0,1,.29-.84,2.22,2.22,0,0,1,.68-.62,2,2,0,0,1,.77-.26.54.54,0,0,1,.52.17A16.24,16.24,0,0,0,664.61,75a7.77,7.77,0,0,0,4.84-1,4.38,4.38,0,0,0,2-4.07,8,8,0,0,0-.68-3.43,8.94,8.94,0,0,0-1.88-2.58,16.75,16.75,0,0,0-2.77-2.17l-3.33-2.1q-3.3-2.05-5.56-3.71a22.49,22.49,0,0,1-3.62-3.2,10.33,10.33,0,0,1-2-3.23,10.85,10.85,0,0,1-.61-3.75,9.91,9.91,0,0,1,1-4.39,10.46,10.46,0,0,1,2.74-3.49A13.64,13.64,0,0,1,659,35.54a15.79,15.79,0,0,1,5.17-.83,12,12,0,0,1,1.78.16c.71.1,1.44.22,2.19.35s1.51.27,2.27.42a16.5,16.5,0,0,0,1.9.29.88.88,0,0,0,.68-.13,4.09,4.09,0,0,0,.58-.48c.19-.2.38-.4.55-.61a1.46,1.46,0,0,1,.58-.46c.61,0,1.17.4,1.71,1.33a17.29,17.29,0,0,1,1.43,3.2,29.16,29.16,0,0,1,1,3.45,13.68,13.68,0,0,1,.36,2.1c0,1.25-.58,1.88-1.74,1.88-.91-.82-1.8-1.59-2.69-2.3s-1.75-1.37-2.61-2a12.89,12.89,0,0,0-3.14-1.42,9,9,0,0,0-3.49-.45,4.87,4.87,0,0,0-2.84,1.13,4,4,0,0,0-1.19,3.26,3.17,3.17,0,0,0,.9,2.07,13.45,13.45,0,0,0,2.36,2.07c1,.69,2,1.39,3.2,2.1s2.3,1.43,3.42,2.16a45.08,45.08,0,0,1,3.94,3,24.84,24.84,0,0,1,3.49,3.62,18,18,0,0,1,2.49,4.2,11.93,11.93,0,0,1,.94,4.62q0,5.94-4.07,9T667,80.32Z" fill="#231815"/><path d="M684.41,62a21.57,21.57,0,0,1,1.17-7.2A16.23,16.23,0,0,1,689,49.08a15.58,15.58,0,0,1,5.49-3.81,18.8,18.8,0,0,1,7.46-1.39,19.1,19.1,0,0,1,7.5,1.39,15.71,15.71,0,0,1,5.52,3.81,16.23,16.23,0,0,1,3.39,5.75,23,23,0,0,1,0,14.47,16.14,16.14,0,0,1-3.39,5.75,15.73,15.73,0,0,1-5.52,3.82,19.29,19.29,0,0,1-7.5,1.38,19,19,0,0,1-7.46-1.38A15.61,15.61,0,0,1,689,75.05a16.14,16.14,0,0,1-3.39-5.75A21.78,21.78,0,0,1,684.41,62Zm26.82-.12a28.63,28.63,0,0,0-.46-5,15.78,15.78,0,0,0-1.51-4.56A9.19,9.19,0,0,0,706.38,49a7.62,7.62,0,0,0-4.46-1.26A7.31,7.31,0,0,0,697.53,49a9.3,9.3,0,0,0-2.81,3.29,15.79,15.79,0,0,0-1.52,4.56,28.62,28.62,0,0,0-.45,5,30.44,30.44,0,0,0,.45,5.23,15.79,15.79,0,0,0,1.52,4.62,9.71,9.71,0,0,0,2.81,3.33,7.19,7.19,0,0,0,4.39,1.29,7.49,7.49,0,0,0,4.46-1.29,9.5,9.5,0,0,0,2.88-3.36,16.18,16.18,0,0,0,1.51-4.62,29.26,29.26,0,0,0,.46-5.08Z" fill="#231815"/><path d="M733.26,74.12a5.14,5.14,0,0,0,.42,1.29c.2.39.66.58,1.39.58,1.51,0,2.73,0,3.65,0l2.23,0q.84,0,1.23,0l.71,0a3.76,3.76,0,0,0,2.2-.94,29.17,29.17,0,0,0,2.52-2.16,2.55,2.55,0,0,1,1.55-.81c.47,0,.71.36.71,1.13a10.86,10.86,0,0,1-1.1,3l-.68,1.48a6.16,6.16,0,0,1-.61,1.1,2.06,2.06,0,0,1-.84.68,3.27,3.27,0,0,1-1.29.23H723.06a1.14,1.14,0,0,1-1.3-1.29c0-.61.54-1.06,1.62-1.36A2.14,2.14,0,0,0,725,75V48.72a1.93,1.93,0,0,0-1.61-2c-1-.39-1.55-.86-1.55-1.42,0-.9.43-1.36,1.29-1.36h12.15c.86,0,1.29.46,1.29,1.36,0,.6-.56,1.06-1.68,1.36a2.08,2.08,0,0,0-1.55,2.06Z" fill="#231815"/><path d="M785.21,46.59a4,4,0,0,0-1.64.71,4.71,4.71,0,0,0-1.26,2.27q-2.32,7.17-4.69,14.24t-4.68,14.25a2.17,2.17,0,0,1-1.42,1.29,6.27,6.27,0,0,1-4.27,0,2,2,0,0,1-1.35-1.26L755,50a4.44,4.44,0,0,0-.87-1.29c-.42-.43-.87-.86-1.36-1.29s-1-.83-1.42-1.2a13.72,13.72,0,0,1-1.07-.93c0-1,.43-1.43,1.29-1.43h13.31c.86,0,1.29.48,1.29,1.43a1.28,1.28,0,0,1-1,1.22c-1.5.65-2.26,1.38-2.26,2.2,0,0,.17.54.52,1.49s.79,2.13,1.33,3.55,1.13,3,1.77,4.62,1.24,3.22,1.78,4.68,1,2.73,1.42,3.78.63,1.65.68,1.78q.51.9,1.29,0c.3-1.21.79-2.77,1.45-4.68s1.34-3.88,2-5.88,1.25-3.88,1.74-5.62a15.76,15.76,0,0,0,.74-4,1.77,1.77,0,0,0-1.29-1.81c-.82-.26-1.22-.69-1.22-1.29a1.2,1.2,0,0,1,1.35-1.36h8.4a1.19,1.19,0,0,1,1,.39,1.32,1.32,0,0,1,.32.84,1.75,1.75,0,0,1-.26.91A.92.92,0,0,1,785.21,46.59Z" fill="#231815"/><path d="M789,79.74c-.86,0-1.29-.48-1.29-1.42,0-.61.53-1.06,1.61-1.36a2.08,2.08,0,0,0,1.62-2V48.72a2.08,2.08,0,0,0-1.62-2c-1.08-.3-1.61-.77-1.61-1.42,0-.9.43-1.36,1.29-1.36h12.15c.86,0,1.29.46,1.29,1.36,0,.6-.56,1.08-1.68,1.42a2.08,2.08,0,0,0-1.62,2V75a2.08,2.08,0,0,0,1.62,2c1.12.34,1.68.8,1.68,1.36,0,.94-.43,1.42-1.29,1.42Z" fill="#231815"/><path d="M834.4,48.72q0,2.34.06,5.43c0,2.07.09,4.22.13,6.46s.06,4.46.06,6.66,0,4.18,0,5.94-.07,3.2-.16,4.3-.22,1.69-.39,1.78a2,2,0,0,1-.84.48,4.15,4.15,0,0,1-1,.19,2.78,2.78,0,0,1-1-.13,1.37,1.37,0,0,1-.78-.54q-4.14-5.69-8.82-11.93t-9.85-11.92L811.65,75a1.87,1.87,0,0,0,1.62,1.87c1.07.39,1.61.89,1.61,1.49,0,.91-.43,1.36-1.29,1.36h-8.27c-.86,0-1.29-.45-1.29-1.36,0-.56.54-1,1.62-1.42A1.91,1.91,0,0,0,807.26,75V48.72a2.08,2.08,0,0,0-1.61-2c-1.08-.3-1.62-.77-1.62-1.42,0-.95.43-1.42,1.29-1.42h7.11c.3,0,.85.4,1.65,1.19s1.71,1.84,2.74,3.11,2.16,2.7,3.36,4.29,2.41,3.16,3.62,4.69l3.42,4.33q1.62,2,2.78,3.26v-.39c0-.21,0-.83,0-1.84s0-2.58,0-4.72,0-5.15.06-9.08q0-1.29-2.13-2.13c-.69-.26-1-.66-1-1.22,0-.95.43-1.43,1.29-1.43h8.14c.9,0,1.36.48,1.36,1.43q0,.9-1.62,1.35A2.07,2.07,0,0,0,834.4,48.72Z" fill="#231815"/><path d="M869,72.57h-.13c.17.08.35.17.55.25l.61.26h.19c.09.22.18.43.26.65l.26.58c0,.78-.53,1.52-1.58,2.23a17.49,17.49,0,0,1-4.49,2c-1.42.35-2.84.64-4.27.87a24,24,0,0,1-4,.36,16.57,16.57,0,0,1-6.92-1.39,15.35,15.35,0,0,1-5.16-3.81A16.91,16.91,0,0,1,841,68.79a22.38,22.38,0,0,1-1.13-7.21A19.92,19.92,0,0,1,841,54.86a16.53,16.53,0,0,1,3.24-5.52,17,17,0,0,1,5-3.85,15.85,15.85,0,0,1,6.4-1.68,13.84,13.84,0,0,1,2.32.07c.78.09,1.5.19,2.17.32a16.43,16.43,0,0,0,1.74.26,1.89,1.89,0,0,0,1.07-.13c.21-.13.49-.31.84-.55a2,2,0,0,1,1.16-.35q.64,0,1.23.93A13.64,13.64,0,0,1,867.35,47a24.68,24.68,0,0,1,1,2.55,3.74,3.74,0,0,1,.2,1.39,2,2,0,0,1-.36.78,1.87,1.87,0,0,1-.68.58,1.71,1.71,0,0,1-.77.19.77.77,0,0,1-.65-.38,5.5,5.5,0,0,0-.65-.68q-.25-.22-.48-.39l-.45-.36c-.15-.13-.36-.32-.62-.58a8.14,8.14,0,0,0-3.16-1.94,11.83,11.83,0,0,0-3.88-.64A6,6,0,0,0,852.75,49,10.92,10.92,0,0,0,850,52.6a19.7,19.7,0,0,0-1.52,4.75,25,25,0,0,0,0,10,13.41,13.41,0,0,0,1.68,4.37,8.57,8.57,0,0,0,3.1,3,9.63,9.63,0,0,0,4.78,1.1,11,11,0,0,0,1.33-.07,5.09,5.09,0,0,0,1-.19,3.24,3.24,0,0,0,.84-.71,1.55,1.55,0,0,0,.39-1V67.91a2,2,0,0,0-1.36-2c-1.34-.39-2-1-2-1.68a1.07,1.07,0,0,1,.64-1,3.38,3.38,0,0,1,1.55-.33h9.18a3.57,3.57,0,0,1,1.58.33,1.08,1.08,0,0,1,.68,1c0,.52-.58,1.06-1.75,1.62a2.78,2.78,0,0,0-.87.87,2.18,2.18,0,0,0-.35,1.19Z" fill="#231815"/><path d="M923,80.19a53.82,53.82,0,0,1-9.69-1q-7.37-1.35-7.36-3.75c0-.3.49-.81,1.48-1.55a3.33,3.33,0,0,0,1.49-2.78V43c0-.78-.64-1.36-1.91-1.74s-1.9-1-1.9-1.94q0-2.27,8.07-3.75a59,59,0,0,1,10.53-1.16q11.5,0,17.87,5.84t6.36,17.29q0,10.65-7.24,16.79Q933.85,80.19,923,80.19ZM924.67,39a7.44,7.44,0,0,0-3.84,1,3.13,3.13,0,0,0-1.65,3V71.73a2.89,2.89,0,0,0,1.87,2.77,7.83,7.83,0,0,0,3.56.78,11.31,11.31,0,0,0,10-5.43,20.55,20.55,0,0,0,3-11.5q0-7.82-2.59-12.79Q931.71,39,924.67,39Z" fill="#231815"/><path d="M976.24,79.74q-2,0-7.11-7.37-4.9-7.29-4.91-9.62c0-.56,1.18-1.32,3.55-2.27a4.84,4.84,0,0,0,2.65-2.35,8.7,8.7,0,0,0,.84-4,9.33,9.33,0,0,0-.29-2.29,6.48,6.48,0,0,0-.9-2,5.09,5.09,0,0,0-1.55-1.48,4.56,4.56,0,0,0-2.23-.65,6.28,6.28,0,0,0-1.55.2,5.3,5.3,0,0,0-1.46.58,3.34,3.34,0,0,0-1.1,1,2.12,2.12,0,0,0-.42,1.29V75a2,2,0,0,0,1.62,1.93c1.08.39,1.61.87,1.61,1.43,0,.94-.43,1.42-1.29,1.42H951.49c-.86,0-1.29-.48-1.29-1.42,0-.61.54-1.06,1.61-1.36a2.1,2.1,0,0,0,1.69-2V50.73c0-.56-.52-1-1.56-1.36s-1.55-.82-1.55-1.55c0-.43.35-.84,1-1.23a11.5,11.5,0,0,1,2.61-1c1.06-.28,2.21-.53,3.46-.74s2.47-.4,3.65-.55,2.23-.26,3.13-.32,1.53-.1,1.88-.1a20.28,20.28,0,0,1,4.84.58,14.38,14.38,0,0,1,4.3,1.78,9.76,9.76,0,0,1,3.1,3.1,8.37,8.37,0,0,1,1.2,4.55A7.41,7.41,0,0,1,979,57a8.32,8.32,0,0,1-1.59,2.3,13.77,13.77,0,0,1-2.32,1.9c-.89.58-1.8,1.22-2.75,1.91a24.35,24.35,0,0,0,4.59,8.2,20.17,20.17,0,0,0,3.61,3.52c1.25.93,2.4,1.76,3.43,2.49a1.46,1.46,0,0,1,.71.87,1,1,0,0,1-.19.78,1.86,1.86,0,0,1-.75.58,2.09,2.09,0,0,1-.87.23Z" fill="#231815"/><path d="M987.55,79.74c-.86,0-1.29-.48-1.29-1.42,0-.61.53-1.06,1.61-1.36a2.08,2.08,0,0,0,1.62-2V48.72a2.08,2.08,0,0,0-1.62-2c-1.08-.3-1.61-.77-1.61-1.42,0-.9.43-1.36,1.29-1.36H999.7c.86,0,1.29.46,1.29,1.36,0,.6-.56,1.08-1.68,1.42a2.08,2.08,0,0,0-1.62,2V75a2.08,2.08,0,0,0,1.62,2c1.12.34,1.68.8,1.68,1.36,0,.94-.43,1.42-1.29,1.42Z" fill="#231815"/><path d="M1037.43,46.59a4,4,0,0,0-1.64.71,4.8,4.8,0,0,0-1.26,2.27q-2.33,7.17-4.69,14.24t-4.68,14.25a2.17,2.17,0,0,1-1.42,1.29,6.27,6.27,0,0,1-4.27,0,2,2,0,0,1-1.35-1.26L1007.2,50a4.25,4.25,0,0,0-.87-1.29c-.42-.43-.87-.86-1.36-1.29s-1-.83-1.42-1.2a13.72,13.72,0,0,1-1.07-.93c0-1,.43-1.43,1.29-1.43h13.31c.86,0,1.29.48,1.29,1.43a1.28,1.28,0,0,1-1,1.22c-1.5.65-2.26,1.38-2.26,2.2,0,0,.17.54.52,1.49s.79,2.13,1.33,3.55,1.13,3,1.77,4.62,1.24,3.22,1.78,4.68,1,2.73,1.42,3.78.63,1.65.68,1.78q.51.9,1.29,0c.3-1.21.79-2.77,1.45-4.68s1.34-3.88,2-5.88,1.25-3.88,1.74-5.62a15.76,15.76,0,0,0,.74-4,1.77,1.77,0,0,0-1.29-1.81c-.82-.26-1.22-.69-1.22-1.29a1.2,1.2,0,0,1,1.35-1.36h8.4a1.19,1.19,0,0,1,1,.39,1.32,1.32,0,0,1,.32.84,1.75,1.75,0,0,1-.26.91A.92.92,0,0,1,1037.43,46.59Z" fill="#231815"/><path d="M1051.46,56.67a5.92,5.92,0,0,0,2.26.45q.58,0,1.62-.09c.68-.07,1.25-.1,1.68-.1a4.63,4.63,0,0,1,2.29.49,1.84,1.84,0,0,1,.87,1.77,1.77,1.77,0,0,1-.9,1.75,5.6,5.6,0,0,1-2.46.45,22.52,22.52,0,0,1-2.26-.1l-1.1-.1a4.66,4.66,0,0,0-1.32.26,1.25,1.25,0,0,0-.81,1.36V74.12c0,.9.18,1.42.55,1.55a6.42,6.42,0,0,0,1.58.26q1.17.06,2.88.09t3.33,0a8.33,8.33,0,0,0,2.45-.48,5.32,5.32,0,0,0,2-1.26c.65-.65,1.2-1.17,1.65-1.55s.74-.59.87-.59a1.61,1.61,0,0,1,1,.23,1,1,0,0,1,.45.87,3.62,3.62,0,0,1-.26,1c-.17.47-.39,1-.65,1.58s-.54,1.15-.84,1.71a7.21,7.21,0,0,1-.84,1.29,2.29,2.29,0,0,1-1.19.71,5.58,5.58,0,0,1-.94.2h-22.22a1.14,1.14,0,0,1-1-.42,1.78,1.78,0,0,1-.32-1.13.79.79,0,0,1,.51-.71c.35-.18.71-.35,1.1-.52a4.39,4.39,0,0,0,1.1-.71,1.64,1.64,0,0,0,.52-1.29V48.72a1.56,1.56,0,0,0-.52-1.22,6.87,6.87,0,0,0-1.1-.78l-1.1-.61a.9.9,0,0,1-.51-.81c0-.9.42-1.36,1.29-1.36h21.12a2.49,2.49,0,0,1,1.46.49,5.28,5.28,0,0,1,1.23,1.26,7.94,7.94,0,0,1,.9,1.74,5.54,5.54,0,0,1,.36,1.94,1.28,1.28,0,0,1-.17.52,1.24,1.24,0,0,1-.42.51,1.33,1.33,0,0,1-.58.26.84.84,0,0,1-.71-.26c-1-.77-1.78-1.36-2.36-1.77a7.12,7.12,0,0,0-1.84-.94,9.08,9.08,0,0,0-2.29-.39c-.88,0-2.08-.06-3.59-.06a3.76,3.76,0,0,0-2.42.52,1.82,1.82,0,0,0-.55,1.42c0,1.68,0,3,0,4s0,1.7,0,2.2,0,.83,0,1S1051.46,56.63,1051.46,56.67Z" fill="#231815"/><path d="M1100.12,48.72q0,2.34.06,5.43c0,2.07.09,4.22.13,6.46s.07,4.46.07,6.66,0,4.18,0,5.94-.07,3.2-.16,4.3-.21,1.69-.39,1.78a2,2,0,0,1-.84.48,4.15,4.15,0,0,1-1,.19,2.81,2.81,0,0,1-1-.13,1.37,1.37,0,0,1-.78-.54q-4.12-5.69-8.82-11.93t-9.85-11.92L1077.38,75a1.86,1.86,0,0,0,1.61,1.87c1.08.39,1.62.89,1.62,1.49,0,.91-.44,1.36-1.3,1.36H1071c-.86,0-1.29-.45-1.29-1.36,0-.56.54-1,1.62-1.42A1.91,1.91,0,0,0,1073,75V48.72a2.08,2.08,0,0,0-1.61-2c-1.08-.3-1.62-.77-1.62-1.42,0-.95.43-1.42,1.29-1.42h7.11c.3,0,.85.4,1.65,1.19a41.14,41.14,0,0,1,2.74,3.11q1.56,1.91,3.36,4.29t3.62,4.69l3.43,4.33c1.07,1.35,2,2.44,2.77,3.26v-.39c0-.21,0-.83,0-1.84s0-2.58,0-4.72,0-5.15.06-9.08q0-1.29-2.13-2.13c-.69-.26-1-.66-1-1.22,0-.95.43-1.43,1.29-1.43H1102c.91,0,1.36.48,1.36,1.43q0,.9-1.62,1.35A2.08,2.08,0,0,0,1100.12,48.72Z" fill="#231815"/><path d="M226,143.78a1.58,1.58,0,0,1-1.81-1.75c0-.69.46-1.2,1.36-1.55a6.37,6.37,0,0,0,2.33-1.32,1.54,1.54,0,0,0,.51-1.72l-1.93-6.2a12.2,12.2,0,0,0-1.85-.35,12,12,0,0,0-2,0,11.46,11.46,0,0,1-2.59.36,6.22,6.22,0,0,1-2.19-.29,2.67,2.67,0,0,1-1.42-.87,2.14,2.14,0,0,1-.39-1.26,1.77,1.77,0,0,1,1-1.81,7.45,7.45,0,0,1,2.94-.46c.69,0,1.48,0,2.36,0a2.5,2.5,0,0,0,1.9-.55,23.18,23.18,0,0,0-.74-2.75c-.41-1.31-.87-2.7-1.39-4.17s-1-2.82-1.48-4.07-.8-2.06-1-2.45a48.34,48.34,0,0,0-2,4.94c-.77,2.18-1.7,4.82-2.77,7.92-1.25,3.44-2.15,6.22-2.68,8.33a21.36,21.36,0,0,0-.81,4.33,2.3,2.3,0,0,0,1.74,2.26c1.16.43,1.75,1,1.75,1.68a1.58,1.58,0,0,1-1.81,1.75H202.48c-.61,0-1-.17-1.07-.49a4.55,4.55,0,0,1-.16-1.39c1.16-.9,2.24-1.79,3.23-2.65a7,7,0,0,0,2-2.58q3.11-8.85,5.85-17.64t5.72-17.77a3.52,3.52,0,0,1,1.45-1.71,4.06,4.06,0,0,1,2.16-.61,8.76,8.76,0,0,1,2.85.51,3.11,3.11,0,0,1,1.94,1.55q3.09,8.86,6.2,17.61t6.2,17.61a3.32,3.32,0,0,0,1.29,1.64c.65.46,1.55,1.11,2.72,2l1.61,1.17a1.39,1.39,0,0,1,.71,1,1.55,1.55,0,0,1-1.74,1.75Z" fill="#231815"/><path d="M272.65,143.78q-2,0-7.11-7.37-4.91-7.31-4.91-9.63c0-.56,1.18-1.31,3.55-2.26a4.82,4.82,0,0,0,2.65-2.36,8.62,8.62,0,0,0,.84-4,8.88,8.88,0,0,0-.29-2.29,6.38,6.38,0,0,0-.9-2,5.09,5.09,0,0,0-1.55-1.48,4.56,4.56,0,0,0-2.23-.65,6.27,6.27,0,0,0-1.55.19,6.18,6.18,0,0,0-1.46.58,3.58,3.58,0,0,0-1.1,1,2.16,2.16,0,0,0-.41,1.3V139a2,2,0,0,0,1.61,1.94c1.08.39,1.62.86,1.62,1.42,0,1-.44,1.43-1.3,1.43H247.9c-.86,0-1.29-.48-1.29-1.43,0-.6.54-1,1.61-1.35a2.11,2.11,0,0,0,1.69-2V114.77c0-.56-.52-1-1.56-1.36s-1.55-.82-1.55-1.55c0-.43.35-.84,1-1.23a11.22,11.22,0,0,1,2.61-1c1.06-.28,2.21-.53,3.46-.74s2.47-.4,3.65-.55,2.23-.26,3.13-.33,1.53-.09,1.88-.09a20.28,20.28,0,0,1,4.84.58,14.38,14.38,0,0,1,4.3,1.78,9.66,9.66,0,0,1,3.1,3.1,8.37,8.37,0,0,1,1.2,4.55,7.41,7.41,0,0,1-.58,3.07,8.12,8.12,0,0,1-1.59,2.29,13.82,13.82,0,0,1-2.32,1.91c-.89.58-1.8,1.22-2.75,1.91a24.45,24.45,0,0,0,4.59,8.2,20.22,20.22,0,0,0,3.62,3.52c1.24.93,2.39,1.76,3.42,2.49a1.46,1.46,0,0,1,.71.87,1,1,0,0,1-.19.78,1.86,1.86,0,0,1-.75.58,2.09,2.09,0,0,1-.87.23Z" fill="#231815"/><path d="M311.1,115.67c-.69-.47-1.23-.87-1.62-1.19a8.25,8.25,0,0,1-1.29-1.46,3.79,3.79,0,0,0-1.84-.94,13.84,13.84,0,0,0-3.39-.35c-1.13,0-1.68.5-1.68,1.49V139a2.06,2.06,0,0,0,1.55,2c1.07.3,1.61.77,1.61,1.42a1.2,1.2,0,0,1-1.36,1.36H291.13c-.86,0-1.29-.46-1.29-1.36a1.11,1.11,0,0,1,1-1.23,2.61,2.61,0,0,0,2.2-2.71l-.07-25.26a1.76,1.76,0,0,0-.29-1.1,1.34,1.34,0,0,0-1.13-.39c-.73,0-1.37,0-1.91,0a7.88,7.88,0,0,0-1.55.09,3.78,3.78,0,0,0-1.39.55,5.61,5.61,0,0,0-1.35,1.39c-1.12,1.38-1.92,2.07-2.39,2.07-.91,0-1.36-.41-1.36-1.23a7.39,7.39,0,0,1,1.16-3.1c.56-1,1-1.87,1.39-2.52a2.06,2.06,0,0,1,2-1h21.84a3.86,3.86,0,0,1,2.78,2,14.37,14.37,0,0,1,1.87,4.59.41.41,0,0,1-.13.42,4.16,4.16,0,0,1-.42.42,1.44,1.44,0,0,1-.51.29Q311.22,115.81,311.1,115.67Z" fill="#231815"/><path d="M315.43,143.78c-.86,0-1.29-.48-1.29-1.43,0-.6.54-1,1.61-1.35a2.08,2.08,0,0,0,1.62-2V112.76a2.08,2.08,0,0,0-1.62-2c-1.07-.3-1.61-.78-1.61-1.42,0-.91.43-1.36,1.29-1.36h12.15c.86,0,1.29.45,1.29,1.36,0,.6-.56,1.08-1.68,1.42a2.08,2.08,0,0,0-1.62,2V139a2.08,2.08,0,0,0,1.62,2q1.68.51,1.68,1.35c0,1-.43,1.43-1.29,1.43Z" fill="#231815"/><path d="M357.3,114.38l-.84.45q-3-2.13-3.94-2.65c-.81-.56-2.84-.84-6.07-.84a10.85,10.85,0,0,0-1.32.07,3.4,3.4,0,0,0-.94.19,2.87,2.87,0,0,0-1,.68,1.41,1.41,0,0,0-.39,1v6.91a2.46,2.46,0,0,1,.1.49,1.92,1.92,0,0,0,.1.48,4.17,4.17,0,0,0,1,.29,6.49,6.49,0,0,0,1.16.1c.39,0,.93,0,1.62-.1s1.25-.09,1.68-.09a4.9,4.9,0,0,1,2.32.48,1.77,1.77,0,0,1,.91,1.71,1.81,1.81,0,0,1-.91,1.81,5.55,5.55,0,0,1-2.45.45q-.52,0-1.65-.09c-.75-.07-1.35-.1-1.78-.1a6,6,0,0,0-1.87.45,5.61,5.61,0,0,1-.16.62,1.56,1.56,0,0,0-.1.55v11.3a2.33,2.33,0,0,0,1.62,2.52,3.54,3.54,0,0,1,1.19.55,1,1,0,0,1,.49.81c0,.9-.43,1.36-1.3,1.36h-12c-.86,0-1.29-.46-1.29-1.36a1.11,1.11,0,0,1,1-1.23c1.51-.34,2.22-1.12,2.14-2.33v-26.1a2,2,0,0,0-1.55-1.94c-1.08-.3-1.62-.77-1.62-1.42q0-1.35,1.29-1.35h21.07a2.4,2.4,0,0,1,.48.06l.61.13a.6.6,0,0,0,.23.06.65.65,0,0,1,.23.07,6.17,6.17,0,0,1,.8,1.07,13.22,13.22,0,0,1,.75,1.38,15.08,15.08,0,0,1,.55,1.46,4.39,4.39,0,0,1,.22,1.26Z" fill="#231815"/><path d="M359.19,143.78c-.87,0-1.3-.48-1.3-1.43q0-.9,1.62-1.35a2.08,2.08,0,0,0,1.61-2V112.76a2.08,2.08,0,0,0-1.61-2c-1.08-.3-1.62-.78-1.62-1.42,0-.91.43-1.36,1.3-1.36h12.14c.86,0,1.29.45,1.29,1.36,0,.6-.56,1.08-1.68,1.42a2.08,2.08,0,0,0-1.61,2V139a2.08,2.08,0,0,0,1.61,2q1.68.51,1.68,1.35c0,1-.43,1.43-1.29,1.43Z" fill="#231815"/><path d="M391.11,143.84q-7.69,0-11.95-5.43a19.78,19.78,0,0,1-4-12.47,20.69,20.69,0,0,1,3.69-12.34,13.58,13.58,0,0,1,11.56-5.55c.3,0,.77,0,1.39.09s1.41.19,2.36.36a11.92,11.92,0,0,0,1.23.19,7.13,7.13,0,0,0,.9.07,2,2,0,0,1,.39-.26c.21-.13.45-.26.71-.39a6.92,6.92,0,0,1,.71-.32,1.45,1.45,0,0,1,.39-.13c.94,0,1.83,1.12,2.65,3.36a24.38,24.38,0,0,1,.84,2.68,8.81,8.81,0,0,1,.26,1.84,1,1,0,0,1-.52.94,2.83,2.83,0,0,1-1.36.29,43.45,43.45,0,0,0-4.2-3.43,9.8,9.8,0,0,0-2.39-1.22,8.4,8.4,0,0,0-2.78-.46q-4.07,0-6,4.91a22.32,22.32,0,0,0-1.42,8.66q0,6.27,1.55,9.63,2.26,4.9,7.17,4.91a7.57,7.57,0,0,0,2.46-.42,12.37,12.37,0,0,0,2.39-1.13,31,31,0,0,1,4.78-2.78,1.08,1.08,0,0,1,.78.16,1.78,1.78,0,0,1,.51.55,2.07,2.07,0,0,1,.26.61,4.14,4.14,0,0,1-.09,1.2,3.49,3.49,0,0,1-1.26,1.87,14.5,14.5,0,0,1-3.56,2.07A18.28,18.28,0,0,1,391.11,143.84Z" fill="#231815"/><path d="M407.14,143.78c-.86,0-1.29-.48-1.29-1.43,0-.6.53-1,1.61-1.35a2.08,2.08,0,0,0,1.62-2V112.76a2.08,2.08,0,0,0-1.62-2c-1.08-.3-1.61-.78-1.61-1.42,0-.91.43-1.36,1.29-1.36h12.14c.87,0,1.3.45,1.3,1.36,0,.6-.56,1.08-1.68,1.42a2.08,2.08,0,0,0-1.62,2V139a2.08,2.08,0,0,0,1.62,2q1.68.51,1.68,1.35c0,1-.43,1.43-1.3,1.43Z" fill="#231815"/><path d="M441.9,143.78a1.29,1.29,0,0,1-1.48-1.43c0-.56.36-1,1.1-1.22a5.16,5.16,0,0,0,1.87-1.1,1.24,1.24,0,0,0,.39-1.36l-1.55-5a11.92,11.92,0,0,0-3.11-.26,7.2,7.2,0,0,1-3.81,0c-1-.3-1.48-.86-1.48-1.68a1.44,1.44,0,0,1,.81-1.46A6.18,6.18,0,0,1,437,130l1.91,0a1.87,1.87,0,0,0,1.52-.48,14.8,14.8,0,0,0-.58-2.17c-.35-1-.73-2.16-1.13-3.33s-.81-2.25-1.2-3.26l-.78-2c-.43,1-1,2.29-1.58,4s-1.37,3.84-2.23,6.29q-1.49,4.14-2.13,6.69a17.72,17.72,0,0,0-.65,3.46A1.78,1.78,0,0,0,431.5,141c.95.38,1.42.84,1.42,1.35a1.29,1.29,0,0,1-1.48,1.43H423q-.72,0-.87-.39a2.91,2.91,0,0,1-.17-1.1c.95-.73,1.82-1.44,2.62-2.13a5.3,5.3,0,0,0,1.58-2.07q2.52-7.11,4.72-14.15t4.59-14.28a2.56,2.56,0,0,1,1.16-1.39,3.46,3.46,0,0,1,1.74-.48,6.93,6.93,0,0,1,2.3.42,2.33,2.33,0,0,1,1.52,1.26q2.52,7.11,5,14.11t4.95,14.12a2.87,2.87,0,0,0,1.06,1.29c.5.35,1.22.89,2.17,1.62l1.29.94c.39.28.58.55.58.8a1.26,1.26,0,0,1-1.42,1.43Z" fill="#231815"/><path d="M470.21,138.15a4.41,4.41,0,0,0,.42,1.3c.19.38.66.58,1.39.58,1.51,0,2.72,0,3.65,0l2.23,0c.56,0,1,0,1.22,0l.72,0a3.76,3.76,0,0,0,2.19-.94,29.17,29.17,0,0,0,2.52-2.16,2.57,2.57,0,0,1,1.55-.81c.48,0,.71.35.71,1.13a10.62,10.62,0,0,1-1.1,3c-.25.56-.48,1.05-.67,1.48a6.53,6.53,0,0,1-.62,1.1,1.94,1.94,0,0,1-.84.68,3.2,3.2,0,0,1-1.29.23H460a1.14,1.14,0,0,1-1.29-1.3c0-.6.54-1,1.61-1.35a2.15,2.15,0,0,0,1.62-2.14V112.76a1.94,1.94,0,0,0-1.62-2c-1-.39-1.55-.86-1.55-1.42,0-.91.43-1.36,1.29-1.36h12.15c.86,0,1.29.45,1.29,1.36,0,.6-.56,1-1.68,1.36a2.08,2.08,0,0,0-1.55,2.06Z" fill="#231815"/><path d="M521.45,143.78c-1.07,0-1.61-.59-1.61-1.75,0-.73.67-1.31,2-1.74a2.48,2.48,0,0,0,2-2.46V105a2.48,2.48,0,0,0-2-2.46c-1.33-.43-2-1-2-1.81,0-1.12.54-1.68,1.61-1.68h15.19c1.07,0,1.61.56,1.61,1.68,0,.73-.69,1.34-2.06,1.81a2.48,2.48,0,0,0-2,2.46v32.88a2.48,2.48,0,0,0,2,2.46c1.37.47,2.06,1.05,2.06,1.74,0,1.16-.54,1.75-1.61,1.75Z" fill="#231815"/><path d="M570.24,112.76c0,1.55,0,3.36.07,5.43s.08,4.22.12,6.46.07,4.46.07,6.66,0,4.17,0,5.94-.08,3.2-.16,4.3-.22,1.69-.39,1.77a2.05,2.05,0,0,1-.84.49,4.75,4.75,0,0,1-1,.19,2.81,2.81,0,0,1-1-.13,1.37,1.37,0,0,1-.78-.55q-4.12-5.69-8.81-11.92t-9.86-11.92l-.06,19.58a1.87,1.87,0,0,0,1.61,1.87c1.08.39,1.62.89,1.62,1.49,0,.9-.43,1.36-1.29,1.36h-8.27c-.87,0-1.3-.46-1.3-1.36,0-.56.54-1,1.62-1.42a1.91,1.91,0,0,0,1.61-1.94v-26.3a2.08,2.08,0,0,0-1.61-2c-1.08-.3-1.62-.78-1.62-1.42,0-1,.43-1.42,1.3-1.42h7.1c.3,0,.85.4,1.65,1.19s1.71,1.83,2.75,3.1,2.15,2.71,3.36,4.3,2.41,3.16,3.61,4.68,2.35,3,3.43,4.33,2,2.45,2.78,3.27v-.39c0-.22,0-.83,0-1.84s0-2.59,0-4.72,0-5.16.07-9.08q0-1.29-2.13-2.13c-.69-.26-1-.67-1-1.23,0-.94.43-1.42,1.29-1.42h8.14c.91,0,1.36.48,1.36,1.42,0,.61-.54,1.06-1.62,1.36A2.08,2.08,0,0,0,570.24,112.76Z" fill="#231815"/><path d="M604.49,115.67c-.69-.47-1.23-.87-1.61-1.19a8.66,8.66,0,0,1-1.3-1.46,3.74,3.74,0,0,0-1.84-.94,13.72,13.72,0,0,0-3.39-.35c-1.12,0-1.68.5-1.68,1.49V139a2.07,2.07,0,0,0,1.55,2c1.08.3,1.62.77,1.62,1.42a1.21,1.21,0,0,1-1.36,1.36h-12c-.87,0-1.3-.46-1.3-1.36a1.12,1.12,0,0,1,1-1.23,2.6,2.6,0,0,0,2.2-2.71l-.06-25.26a1.76,1.76,0,0,0-.3-1.1,1.34,1.34,0,0,0-1.13-.39c-.73,0-1.36,0-1.9,0a7.84,7.84,0,0,0-1.55.09,3.72,3.72,0,0,0-1.39.55,5.62,5.62,0,0,0-1.36,1.39c-1.12,1.38-1.92,2.07-2.39,2.07-.9,0-1.36-.41-1.36-1.23a7.3,7.3,0,0,1,1.17-3.1c.56-1,1-1.87,1.39-2.52a2.05,2.05,0,0,1,2-1h21.83a3.84,3.84,0,0,1,2.78,2,14.6,14.6,0,0,1,1.88,4.59.44.44,0,0,1-.13.42,4.16,4.16,0,0,1-.42.42,1.48,1.48,0,0,1-.52.29Q604.63,115.81,604.49,115.67Z" fill="#231815"/><path d="M619.1,120.71a5.88,5.88,0,0,0,2.26.45c.39,0,.92,0,1.61-.09s1.25-.1,1.68-.1a4.76,4.76,0,0,1,2.3.48,1.87,1.87,0,0,1,.87,1.78,1.76,1.76,0,0,1-.9,1.74,5.48,5.48,0,0,1-2.46.46c-.82,0-1.57,0-2.26-.1l-1.1-.1a4.59,4.59,0,0,0-1.32.26,1.25,1.25,0,0,0-.81,1.36v11.3c0,.91.18,1.43.55,1.55a5.9,5.9,0,0,0,1.58.26c.78,0,1.73.08,2.88.1s2.25,0,3.32,0a8.4,8.4,0,0,0,2.46-.49,5.4,5.4,0,0,0,2-1.26c.65-.64,1.2-1.16,1.65-1.55s.74-.58.87-.58a1.51,1.51,0,0,1,1,.23,1,1,0,0,1,.46.87,3.5,3.5,0,0,1-.26,1c-.17.48-.39,1-.65,1.59s-.54,1.15-.84,1.71a7.21,7.21,0,0,1-.84,1.29,2.29,2.29,0,0,1-1.19.71,5.58,5.58,0,0,1-.94.2H608.83a1.13,1.13,0,0,1-1-.42,1.8,1.8,0,0,1-.33-1.14.79.79,0,0,1,.52-.71c.34-.17.71-.34,1.1-.51a4.57,4.57,0,0,0,1.1-.71,1.65,1.65,0,0,0,.51-1.3V112.76a1.55,1.55,0,0,0-.51-1.22,6.69,6.69,0,0,0-1.1-.78l-1.1-.61a.9.9,0,0,1-.52-.81c0-.91.43-1.36,1.3-1.36H630a2.44,2.44,0,0,1,1.46.49,5.06,5.06,0,0,1,1.22,1.26,7.17,7.17,0,0,1,.91,1.74,5.76,5.76,0,0,1,.35,1.94,1.24,1.24,0,0,1-.16.52,1.51,1.51,0,0,1-.42.51,1.39,1.39,0,0,1-.58.26.86.86,0,0,1-.71-.26c-1-.77-1.78-1.36-2.36-1.77a7.12,7.12,0,0,0-1.84-.94,8.33,8.33,0,0,0-2.29-.39c-.89,0-2.08-.06-3.59-.06a3.83,3.83,0,0,0-2.42.51,1.86,1.86,0,0,0-.55,1.43c0,1.68,0,3,0,4s0,1.7,0,2.2,0,.83,0,1A2.3,2.3,0,0,1,619.1,120.71Z" fill="#231815"/><path d="M649.86,138.15a4.41,4.41,0,0,0,.42,1.3c.19.38.66.58,1.39.58,1.51,0,2.72,0,3.65,0l2.23,0c.56,0,1,0,1.22,0l.72,0a3.76,3.76,0,0,0,2.19-.94,29.17,29.17,0,0,0,2.52-2.16,2.57,2.57,0,0,1,1.55-.81c.48,0,.71.35.71,1.13a10.62,10.62,0,0,1-1.1,3c-.25.56-.48,1.05-.67,1.48a6.53,6.53,0,0,1-.62,1.1,1.94,1.94,0,0,1-.84.68,3.2,3.2,0,0,1-1.29.23H639.65a1.14,1.14,0,0,1-1.29-1.3c0-.6.54-1,1.61-1.35a2.15,2.15,0,0,0,1.62-2.14V112.76a1.94,1.94,0,0,0-1.62-2c-1-.39-1.55-.86-1.55-1.42,0-.91.43-1.36,1.29-1.36h12.15c.86,0,1.29.45,1.29,1.36,0,.6-.56,1-1.68,1.36a2.08,2.08,0,0,0-1.55,2.06Z" fill="#231815"/><path d="M679.45,138.15a5.08,5.08,0,0,0,.42,1.3c.2.38.66.58,1.39.58,1.51,0,2.73,0,3.65,0l2.23,0q.84,0,1.23,0l.71,0a3.76,3.76,0,0,0,2.2-.94,29.17,29.17,0,0,0,2.52-2.16,2.55,2.55,0,0,1,1.55-.81c.47,0,.71.35.71,1.13a11,11,0,0,1-1.1,3l-.68,1.48a6.54,6.54,0,0,1-.61,1.1,2.06,2.06,0,0,1-.84.68,3.27,3.27,0,0,1-1.29.23H669.25a1.15,1.15,0,0,1-1.3-1.3q0-.9,1.62-1.35a2.15,2.15,0,0,0,1.61-2.14V112.76a1.94,1.94,0,0,0-1.61-2c-1-.39-1.55-.86-1.55-1.42,0-.91.43-1.36,1.29-1.36h12.15c.86,0,1.29.45,1.29,1.36,0,.6-.56,1-1.68,1.36a2.07,2.07,0,0,0-1.55,2.06Z" fill="#231815"/><path d="M698.84,143.78c-.86,0-1.29-.48-1.29-1.43q0-.9,1.62-1.35a2.08,2.08,0,0,0,1.61-2V112.76a2.08,2.08,0,0,0-1.61-2c-1.08-.3-1.62-.78-1.62-1.42,0-.91.43-1.36,1.29-1.36H711c.86,0,1.29.45,1.29,1.36,0,.6-.56,1.08-1.68,1.42a2.07,2.07,0,0,0-1.61,2V139a2.07,2.07,0,0,0,1.61,2q1.68.51,1.68,1.35c0,1-.43,1.43-1.29,1.43Z" fill="#231815"/><path d="M743.62,136.6h-.13l.55.26.62.26h.19l.26.65a5.28,5.28,0,0,0,.26.58,2.89,2.89,0,0,1-1.59,2.23,17.68,17.68,0,0,1-4.49,2q-2.13.51-4.26.87a24.15,24.15,0,0,1-4,.36,16.52,16.52,0,0,1-6.91-1.39,15.18,15.18,0,0,1-5.17-3.82,16.64,16.64,0,0,1-3.26-5.75,22.31,22.31,0,0,1-1.13-7.2,19.92,19.92,0,0,1,1.13-6.72,16.51,16.51,0,0,1,3.23-5.52,17,17,0,0,1,5-3.85,15.8,15.8,0,0,1,6.39-1.68,14,14,0,0,1,2.33.07c.77.08,1.49.19,2.16.32a16.21,16.21,0,0,0,1.75.26,1.85,1.85,0,0,0,1.06-.13c.22-.13.5-.31.84-.55a2,2,0,0,1,1.17-.35c.43,0,.84.31,1.22.93A13.59,13.59,0,0,1,742,111c.47,1.12.79,2,1,2.55a3.7,3.7,0,0,1,.19,1.39,1.64,1.64,0,0,1-.36.77,2,2,0,0,1-.67.59,1.72,1.72,0,0,1-.78.19.77.77,0,0,1-.65-.39,7.6,7.6,0,0,0-.64-.68,4.69,4.69,0,0,0-.49-.38q-.23-.16-.45-.36c-.15-.13-.35-.32-.61-.58a8.18,8.18,0,0,0-3.17-1.94,11.81,11.81,0,0,0-3.87-.64A6,6,0,0,0,727.4,113a10.92,10.92,0,0,0-2.71,3.65,20,20,0,0,0-1.52,4.75,25.74,25.74,0,0,0-.48,4.75,26.15,26.15,0,0,0,.51,5.26,13.36,13.36,0,0,0,1.69,4.36,8.52,8.52,0,0,0,3.1,3,9.57,9.57,0,0,0,4.78,1.09q.71,0,1.32-.06a5,5,0,0,0,1-.19,3.29,3.29,0,0,0,.84-.72,1.52,1.52,0,0,0,.39-1V132a2,2,0,0,0-1.35-2q-2-.58-2-1.68a1.08,1.08,0,0,1,.65-1,3.35,3.35,0,0,1,1.55-.33h9.17a3.61,3.61,0,0,1,1.59.33,1.07,1.07,0,0,1,.67,1c0,.52-.58,1-1.74,1.61a2.71,2.71,0,0,0-.87.88,2.11,2.11,0,0,0-.36,1.19Z" fill="#231815"/><path d="M759.78,120.71a5.92,5.92,0,0,0,2.26.45q.59,0,1.62-.09c.69-.07,1.25-.1,1.68-.1a4.75,4.75,0,0,1,2.29.48,1.87,1.87,0,0,1,.87,1.78,1.76,1.76,0,0,1-.9,1.74,5.45,5.45,0,0,1-2.46.46c-.81,0-1.57,0-2.26-.1l-1.1-.1a4.66,4.66,0,0,0-1.32.26,1.25,1.25,0,0,0-.81,1.36v11.3c0,.91.18,1.43.55,1.55a6,6,0,0,0,1.58.26c.78,0,1.74.08,2.88.1s2.25,0,3.33,0a8.27,8.27,0,0,0,2.45-.49,5.32,5.32,0,0,0,2-1.26c.65-.64,1.2-1.16,1.65-1.55a2.44,2.44,0,0,1,.87-.58,1.55,1.55,0,0,1,1,.23,1,1,0,0,1,.45.87,3.5,3.5,0,0,1-.26,1c-.17.48-.39,1-.65,1.59s-.53,1.15-.84,1.71a7.86,7.86,0,0,1-.83,1.29,2.36,2.36,0,0,1-1.2.71,5.58,5.58,0,0,1-.94.2H749.51a1.14,1.14,0,0,1-1-.42,1.8,1.8,0,0,1-.32-1.14.8.8,0,0,1,.51-.71c.35-.17.71-.34,1.1-.51a4.39,4.39,0,0,0,1.1-.71,1.66,1.66,0,0,0,.52-1.3V112.76a1.56,1.56,0,0,0-.52-1.22,6.3,6.3,0,0,0-1.1-.78l-1.1-.61a.91.91,0,0,1-.51-.81c0-.91.43-1.36,1.29-1.36h21.13a2.41,2.41,0,0,1,1.45.49,5.28,5.28,0,0,1,1.23,1.26,7.51,7.51,0,0,1,.9,1.74,5.54,5.54,0,0,1,.36,1.94,1.28,1.28,0,0,1-.17.52,1.31,1.31,0,0,1-.42.51,1.33,1.33,0,0,1-.58.26.87.87,0,0,1-.71-.26c-1-.77-1.77-1.36-2.36-1.77a7.12,7.12,0,0,0-1.84-.94,8.27,8.27,0,0,0-2.29-.39c-.88,0-2.08-.06-3.59-.06a3.85,3.85,0,0,0-2.42.51,1.86,1.86,0,0,0-.55,1.43c0,1.68,0,3,0,4s0,1.7,0,2.2,0,.83,0,1S759.78,120.67,759.78,120.71Z" fill="#231815"/><path d="M808.44,112.76q0,2.33.06,5.43c0,2.07.09,4.22.13,6.46s.07,4.46.07,6.66,0,4.17,0,5.94-.07,3.2-.16,4.3-.22,1.69-.39,1.77a1.93,1.93,0,0,1-.84.49,4.66,4.66,0,0,1-1,.19,2.78,2.78,0,0,1-1-.13,1.34,1.34,0,0,1-.78-.55q-4.14-5.69-8.82-11.92t-9.85-11.92l-.07,19.58a1.87,1.87,0,0,0,1.62,1.87c1.07.39,1.61.89,1.61,1.49,0,.9-.43,1.36-1.29,1.36h-8.27c-.86,0-1.29-.46-1.29-1.36,0-.56.54-1,1.62-1.42a1.91,1.91,0,0,0,1.61-1.94v-26.3a2.08,2.08,0,0,0-1.61-2c-1.08-.3-1.62-.78-1.62-1.42,0-1,.43-1.42,1.29-1.42h7.11c.3,0,.85.4,1.65,1.19s1.71,1.83,2.74,3.1,2.16,2.71,3.36,4.3,2.41,3.16,3.62,4.68,2.35,3,3.43,4.33,2,2.45,2.77,3.27v-.39c0-.22,0-.83,0-1.84s0-2.59,0-4.72,0-5.16.06-9.08q0-1.29-2.13-2.13c-.69-.26-1-.67-1-1.23,0-.94.43-1.42,1.29-1.42h8.14a1.23,1.23,0,0,1,1.36,1.42c0,.61-.54,1.06-1.62,1.36A2.07,2.07,0,0,0,808.44,112.76Z" fill="#231815"/><path d="M830.15,143.84q-7.68,0-11.95-5.43a19.77,19.77,0,0,1-3.94-12.47,20.75,20.75,0,0,1,3.68-12.34,13.6,13.6,0,0,1,11.57-5.55c.3,0,.76,0,1.39.09s1.41.19,2.35.36a11.92,11.92,0,0,0,1.23.19,7.4,7.4,0,0,0,.91.07,2.15,2.15,0,0,1,.38-.26l.71-.39c.26-.13.5-.24.71-.32a1.72,1.72,0,0,1,.39-.13q1.42,0,2.65,3.36a20.7,20.7,0,0,1,.84,2.68,8.81,8.81,0,0,1,.26,1.84,1,1,0,0,1-.52.94,2.76,2.76,0,0,1-1.35.29,43.45,43.45,0,0,0-4.2-3.43,10,10,0,0,0-2.39-1.22,8.44,8.44,0,0,0-2.78-.46c-2.71,0-4.72,1.64-6,4.91a22.14,22.14,0,0,0-1.42,8.66q0,6.27,1.55,9.63,2.26,4.9,7.17,4.91a7.57,7.57,0,0,0,2.46-.42,12.65,12.65,0,0,0,2.39-1.13,30.47,30.47,0,0,1,4.78-2.78,1,1,0,0,1,.77.16,1.81,1.81,0,0,1,.52.55,2.37,2.37,0,0,1,.26.61,3.91,3.91,0,0,1-.1,1.2,3.49,3.49,0,0,1-1.26,1.87,14.4,14.4,0,0,1-3.55,2.07A18.28,18.28,0,0,1,830.15,143.84Z" fill="#231815"/><path d="M856.46,120.71a5.88,5.88,0,0,0,2.26.45c.38,0,.92,0,1.61-.09s1.25-.1,1.68-.1a4.79,4.79,0,0,1,2.3.48,1.87,1.87,0,0,1,.87,1.78,1.75,1.75,0,0,1-.91,1.74,5.4,5.4,0,0,1-2.45.46c-.82,0-1.57,0-2.26-.1l-1.1-.1a4.65,4.65,0,0,0-1.33.26c-.54.17-.8.63-.8,1.36v11.3c0,.91.18,1.43.55,1.55a5.9,5.9,0,0,0,1.58.26c.77,0,1.73.08,2.87.1s2.25,0,3.33,0a8.4,8.4,0,0,0,2.46-.49,5.4,5.4,0,0,0,2-1.26c.65-.64,1.19-1.16,1.65-1.55s.74-.58.87-.58a1.51,1.51,0,0,1,1,.23,1,1,0,0,1,.45.87,3.41,3.41,0,0,1-.25,1c-.18.48-.39,1-.65,1.59s-.54,1.15-.84,1.71a7.21,7.21,0,0,1-.84,1.29,2.29,2.29,0,0,1-1.19.71,5.58,5.58,0,0,1-.94.2H846.18a1.15,1.15,0,0,1-1-.42,1.86,1.86,0,0,1-.32-1.14.79.79,0,0,1,.52-.71c.34-.17.71-.34,1.1-.51a4.34,4.34,0,0,0,1.09-.71,1.62,1.62,0,0,0,.52-1.3V112.76a1.52,1.52,0,0,0-.52-1.22,6.22,6.22,0,0,0-1.09-.78l-1.1-.61a.9.9,0,0,1-.52-.81c0-.91.43-1.36,1.29-1.36h21.13a2.39,2.39,0,0,1,1.45.49,4.93,4.93,0,0,1,1.23,1.26,7.17,7.17,0,0,1,.91,1.74,5.76,5.76,0,0,1,.35,1.94,1.24,1.24,0,0,1-.16.52,1.51,1.51,0,0,1-.42.51,1.39,1.39,0,0,1-.58.26.86.86,0,0,1-.71-.26c-1-.77-1.78-1.36-2.36-1.77a7.28,7.28,0,0,0-1.84-.94,8.34,8.34,0,0,0-2.3-.39c-.88,0-2.08-.06-3.58-.06a3.83,3.83,0,0,0-2.42.51,1.86,1.86,0,0,0-.55,1.43c0,1.68,0,3,0,4s0,1.7,0,2.2,0,.83,0,1S856.46,120.67,856.46,120.71Z" fill="#231815"/><path d="M939.23,142.42a1.47,1.47,0,0,1-1.1,1.06,4.8,4.8,0,0,1-1.42.3H908.87q-1.62,0-1.62-1.68c0-.69.67-1.25,2-1.68a2.55,2.55,0,0,0,2-2.59V105a2.48,2.48,0,0,0-2-2.46c-1.33-.43-2-1-2-1.81q0-1.68,1.62-1.68h26.42a2.91,2.91,0,0,1,2.39.94,10.86,10.86,0,0,1,1.49,2.55,10.43,10.43,0,0,1,.71,1.81,6,6,0,0,1,.26,1.61,1.2,1.2,0,0,0-.29.55,3.68,3.68,0,0,1-.26.68.93.93,0,0,1-.42.45c-.17.09-.41,0-.71-.19l-1.33-.87-1.45-.94q-.72-.45-1.29-.84c-.39-.26-.67-.45-.84-.58a8,8,0,0,0-2.88-.78,41.26,41.26,0,0,0-5-.25,6.12,6.12,0,0,0-3.23.61,2,2,0,0,0-.9,1.78v8.2a1.68,1.68,0,0,0,.26,1,1.47,1.47,0,0,0,.68.52,2.88,2.88,0,0,0,.87.19,8.39,8.39,0,0,0,.84,0c.26,0,.58,0,1,0l1.23-.09c.43,0,.85-.08,1.26-.1l1,0a6,6,0,0,1,2.87.61,2.32,2.32,0,0,1,1.13,2.23,2.25,2.25,0,0,1-1.13,2.2,6.9,6.9,0,0,1-3.13.58,18.05,18.05,0,0,1-2.07-.13,18.5,18.5,0,0,0-2.13-.13,4.3,4.3,0,0,0-1.78.39,1.58,1.58,0,0,0-.87,1.61v14.15c0,1,.15,1.62.45,1.88a3.7,3.7,0,0,0,2,.45c.51,0,1.27.06,2.26.06h3c1,0,1.94,0,2.78,0l1.65,0c.34.21.86.09,1.55-.39a21.14,21.14,0,0,0,2.16-1.71c.75-.67,1.44-1.29,2.07-1.87s1-.88,1.26-.88a1.93,1.93,0,0,1,1.19.36,1.22,1.22,0,0,1,.49,1.06,4.64,4.64,0,0,1-.39,1.46q-.39,1-.9,2.07c-.35.71-.69,1.38-1,2A6,6,0,0,1,939.23,142.42Z" fill="#231815"/><path d="M959.33,144.16a44.28,44.28,0,0,1-7.75-.77q-6-1-6-3,0-.39,1.2-1.26a2.66,2.66,0,0,0,1.19-2.23V114.44c0-.64-.5-1.13-1.51-1.45s-1.52-.83-1.52-1.52c0-1.2,2.17-2.22,6.52-3a48.6,48.6,0,0,1,8.4-.9q9.18,0,14.28,4.68t5.1,13.86q0,8.53-5.81,13.44Q968.05,144.16,959.33,144.16Zm1.29-32.95a6,6,0,0,0-3,.78,2.49,2.49,0,0,0-1.3,2.45v22.94a2.33,2.33,0,0,0,1.49,2.26,6,6,0,0,0,2.84.65,9,9,0,0,0,8-4.4,16.32,16.32,0,0,0,2.46-9.17A22.05,22.05,0,0,0,969,116.45,8.9,8.9,0,0,0,960.62,111.21Z" fill="#231815"/><path d="M1011.67,133.37a8.34,8.34,0,0,1-1.23,4.46,12,12,0,0,1-3.29,3.49,15.84,15.84,0,0,1-4.23,1.81,19,19,0,0,1-5,.65,15.59,15.59,0,0,1-8.85-2.59,9.08,9.08,0,0,1-4.33-7.82V112.83a2.07,2.07,0,0,0-1.55-2c-1.08-.3-1.62-.77-1.62-1.42,0-.9.43-1.35,1.3-1.35h12q1.29,0,1.29,1.35c0,.65-.53,1.12-1.61,1.42a2.08,2.08,0,0,0-1.62,2v20.41a6,6,0,0,0,1.88,4.62,6.78,6.78,0,0,0,4.78,1.72,8.13,8.13,0,0,0,5.46-1.75,6.36,6.36,0,0,0,2-5.1v-19.9a2.08,2.08,0,0,0-1.61-2c-1-.3-1.55-.77-1.55-1.42q0-1.35,1.29-1.35h8.33a1.2,1.2,0,0,1,1.36,1.35c0,.61-.56,1.08-1.68,1.42a2.3,2.3,0,0,0-1.55,2.46Z" fill="#231815"/><path d="M1033.38,143.84q-7.68,0-12-5.43a19.77,19.77,0,0,1-3.94-12.47,20.75,20.75,0,0,1,3.68-12.34,13.6,13.6,0,0,1,11.57-5.55c.3,0,.76,0,1.39.09s1.41.19,2.36.36a11.35,11.35,0,0,0,1.22.19,7.4,7.4,0,0,0,.91.07,2.15,2.15,0,0,1,.38-.26q.33-.19.72-.39a6.83,6.83,0,0,1,.7-.32,1.72,1.72,0,0,1,.39-.13q1.43,0,2.65,3.36a20.7,20.7,0,0,1,.84,2.68,8.81,8.81,0,0,1,.26,1.84,1,1,0,0,1-.52.94,2.76,2.76,0,0,1-1.35.29,43.45,43.45,0,0,0-4.2-3.43,10,10,0,0,0-2.39-1.22,8.44,8.44,0,0,0-2.78-.46c-2.71,0-4.72,1.64-6,4.91a22.14,22.14,0,0,0-1.42,8.66q0,6.27,1.55,9.63,2.26,4.9,7.17,4.91a7.57,7.57,0,0,0,2.46-.42,12.65,12.65,0,0,0,2.39-1.13,30.47,30.47,0,0,1,4.78-2.78,1,1,0,0,1,.77.16,1.81,1.81,0,0,1,.52.55,2.37,2.37,0,0,1,.26.61,3.91,3.91,0,0,1-.1,1.2,3.49,3.49,0,0,1-1.26,1.87,14.4,14.4,0,0,1-3.55,2.07A18.28,18.28,0,0,1,1033.38,143.84Z" fill="#231815"/><path d="M1066.86,143.78c-1,0-1.49-.48-1.49-1.43,0-.56.37-1,1.1-1.22a5.08,5.08,0,0,0,1.87-1.1,1.24,1.24,0,0,0,.39-1.36l-1.55-5a11.84,11.84,0,0,0-3.1-.26,7.2,7.2,0,0,1-3.81,0c-1-.3-1.49-.86-1.49-1.68a1.44,1.44,0,0,1,.81-1.46A6.23,6.23,0,0,1,1062,130l1.9,0a1.87,1.87,0,0,0,1.52-.48,13.58,13.58,0,0,0-.58-2.17c-.35-1-.72-2.16-1.13-3.33s-.81-2.25-1.2-3.26l-.77-2c-.43,1-1,2.29-1.58,4s-1.37,3.84-2.23,6.29c-1,2.76-1.71,5-2.13,6.69a17,17,0,0,0-.65,3.46,1.77,1.77,0,0,0,1.36,1.81c.94.38,1.42.84,1.42,1.35,0,1-.5,1.43-1.49,1.43H1048q-.71,0-.87-.39a2.94,2.94,0,0,1-.16-1.1c1-.73,1.82-1.44,2.62-2.13a5.4,5.4,0,0,0,1.58-2.07q2.52-7.11,4.71-14.15t4.59-14.28a2.57,2.57,0,0,1,1.17-1.39,3.43,3.43,0,0,1,1.74-.48,6.87,6.87,0,0,1,2.29.42,2.28,2.28,0,0,1,1.52,1.26l5,14.11q2.49,7,4.94,14.12a2.89,2.89,0,0,0,1.07,1.29q.73.52,2.16,1.62l1.29.94c.39.28.58.55.58.8a1.26,1.26,0,0,1-1.42,1.43Z" fill="#231815"/><path d="M1112.09,115.67c-.69-.47-1.23-.87-1.62-1.19a8.67,8.67,0,0,1-1.29-1.46,3.74,3.74,0,0,0-1.84-.94,13.72,13.72,0,0,0-3.39-.35c-1.12,0-1.68.5-1.68,1.49V139a2.07,2.07,0,0,0,1.55,2c1.08.3,1.61.77,1.61,1.42a1.2,1.2,0,0,1-1.35,1.36h-11.95c-.87,0-1.3-.46-1.3-1.36a1.12,1.12,0,0,1,1-1.23,2.6,2.6,0,0,0,2.2-2.71l-.07-25.26a1.76,1.76,0,0,0-.29-1.1,1.34,1.34,0,0,0-1.13-.39c-.73,0-1.36,0-1.9,0a7.84,7.84,0,0,0-1.55.09,3.72,3.72,0,0,0-1.39.55,5.62,5.62,0,0,0-1.36,1.39c-1.12,1.38-1.92,2.07-2.39,2.07-.9,0-1.36-.41-1.36-1.23a7.3,7.3,0,0,1,1.17-3.1c.55-1,1-1.87,1.39-2.52a2.05,2.05,0,0,1,2-1h21.83a3.84,3.84,0,0,1,2.78,2,14.37,14.37,0,0,1,1.87,4.59.43.43,0,0,1-.12.42,4.16,4.16,0,0,1-.42.42,1.57,1.57,0,0,1-.52.29Q1112.22,115.81,1112.09,115.67Z" fill="#231815"/><path d="M1116.43,143.78c-.87,0-1.3-.48-1.3-1.43q0-.9,1.62-1.35a2.08,2.08,0,0,0,1.61-2V112.76a2.08,2.08,0,0,0-1.61-2c-1.08-.3-1.62-.78-1.62-1.42,0-.91.43-1.36,1.3-1.36h12.14c.86,0,1.29.45,1.29,1.36,0,.6-.56,1.08-1.68,1.42a2.08,2.08,0,0,0-1.61,2V139a2.08,2.08,0,0,0,1.61,2q1.68.51,1.68,1.35c0,1-.43,1.43-1.29,1.43Z" fill="#231815"/><path d="M1132.13,126.07a21.83,21.83,0,0,1,1.16-7.2,16.31,16.31,0,0,1,3.4-5.75,15.46,15.46,0,0,1,5.49-3.81,18.8,18.8,0,0,1,7.46-1.39,19,19,0,0,1,7.49,1.39,15.53,15.53,0,0,1,5.53,3.81,16.44,16.44,0,0,1,3.39,5.75,23.14,23.14,0,0,1,0,14.47,16.44,16.44,0,0,1-3.39,5.75,15.53,15.53,0,0,1-5.53,3.81,19,19,0,0,1-7.49,1.39,18.8,18.8,0,0,1-7.46-1.39,15.46,15.46,0,0,1-5.49-3.81,16.31,16.31,0,0,1-3.4-5.75A22,22,0,0,1,1132.13,126.07Zm26.81-.13a28.62,28.62,0,0,0-.45-5,15.73,15.73,0,0,0-1.52-4.55,9.1,9.1,0,0,0-2.87-3.3,7.62,7.62,0,0,0-4.46-1.26,7.29,7.29,0,0,0-4.39,1.26,9.24,9.24,0,0,0-2.81,3.3,15.73,15.73,0,0,0-1.52,4.55,28.62,28.62,0,0,0-.45,5,30.55,30.55,0,0,0,.45,5.24,15.79,15.79,0,0,0,1.52,4.62,9.57,9.57,0,0,0,2.81,3.32,7.1,7.1,0,0,0,4.39,1.3,7.42,7.42,0,0,0,4.46-1.3,9.29,9.29,0,0,0,2.87-3.36,16,16,0,0,0,1.52-4.62,29.13,29.13,0,0,0,.45-5.07Z" fill="#231815"/><path d="M1198.88,112.76q0,2.33.06,5.43c0,2.07.09,4.22.13,6.46s.07,4.46.07,6.66,0,4.17,0,5.94-.07,3.2-.16,4.3-.21,1.69-.39,1.77a1.93,1.93,0,0,1-.84.49,4.66,4.66,0,0,1-1,.19,2.81,2.81,0,0,1-1-.13,1.34,1.34,0,0,1-.78-.55q-4.12-5.69-8.82-11.92t-9.85-11.92l-.06,19.58a1.86,1.86,0,0,0,1.61,1.87c1.08.39,1.62.89,1.62,1.49,0,.9-.44,1.36-1.3,1.36h-8.27c-.86,0-1.29-.46-1.29-1.36,0-.56.54-1,1.62-1.42a1.91,1.91,0,0,0,1.61-1.94v-26.3a2.08,2.08,0,0,0-1.61-2c-1.08-.3-1.62-.78-1.62-1.42,0-1,.43-1.42,1.29-1.42h7.11c.3,0,.85.4,1.65,1.19a40.75,40.75,0,0,1,2.74,3.1c1,1.27,2.16,2.71,3.36,4.3s2.42,3.16,3.62,4.68,2.35,3,3.43,4.33,2,2.45,2.77,3.27v-.39c0-.22,0-.83,0-1.84s0-2.59,0-4.72,0-5.16.06-9.08q0-1.29-2.13-2.13c-.69-.26-1-.67-1-1.23,0-.94.43-1.42,1.29-1.42h8.14c.91,0,1.36.48,1.36,1.42,0,.61-.54,1.06-1.62,1.36A2.08,2.08,0,0,0,1198.88,112.76Z" fill="#231815"/><path d="M1257.49,129a13.57,13.57,0,0,1-1.55-.1,7.34,7.34,0,0,1-1.71-.38,4.78,4.78,0,0,1-1.39-.78,1.55,1.55,0,0,1-.58-1.26,2,2,0,0,1,.93-1.68,5.74,5.74,0,0,1,3.14-.65,5.61,5.61,0,0,0,3.16-.8,5.72,5.72,0,0,0,1.94-2.14,9,9,0,0,0,1-3,18.07,18.07,0,0,0,.2-3.39,19.38,19.38,0,0,0-.55-3.94,12.35,12.35,0,0,0-1.43-3.46,7.93,7.93,0,0,0-2.29-2.45,5.38,5.38,0,0,0-3.16-.94,5.13,5.13,0,0,0-3.23,1.1,3.43,3.43,0,0,0-1.43,2.84v29.85a2.48,2.48,0,0,0,2,2.46c1.33.43,2,1,2,1.81q0,1.68-1.62,1.68h-15.05c-1.08,0-1.61-.56-1.61-1.68,0-.74.66-1.32,2-1.75a2.51,2.51,0,0,0,2-2.52V108c0-.77-.62-1.35-1.87-1.74s-1.88-1-1.88-1.94q0-.9,1.2-1.62a14.25,14.25,0,0,1,3-1.26,35.7,35.7,0,0,1,4-.93c1.49-.26,2.91-.46,4.27-.62s2.57-.26,3.64-.35,1.84-.13,2.27-.13a24.3,24.3,0,0,1,6.33.87,19.32,19.32,0,0,1,5.81,2.62,14.44,14.44,0,0,1,4.27,4.46,11.9,11.9,0,0,1,1.68,6.39,18.76,18.76,0,0,1-1.13,6.79,12.77,12.77,0,0,1-3.2,4.81,12.93,12.93,0,0,1-4.91,2.81A19.59,19.59,0,0,1,1257.49,129Z" fill="#231815"/><path d="M1301.62,143.78q-2,0-7.1-7.37-4.92-7.31-4.91-9.63c0-.56,1.18-1.31,3.55-2.26a4.82,4.82,0,0,0,2.65-2.36,8.62,8.62,0,0,0,.84-4,9.33,9.33,0,0,0-.29-2.29,6.4,6.4,0,0,0-.91-2,4.87,4.87,0,0,0-1.55-1.48,4.49,4.49,0,0,0-2.22-.65,6.4,6.4,0,0,0-1.56.19,6.11,6.11,0,0,0-1.45.58,3.58,3.58,0,0,0-1.1,1,2.17,2.17,0,0,0-.42,1.3V139a2,2,0,0,0,1.62,1.94c1.07.39,1.61.86,1.61,1.42,0,1-.43,1.43-1.29,1.43h-12.21c-.86,0-1.29-.48-1.29-1.43,0-.6.54-1,1.61-1.35a2.1,2.1,0,0,0,1.68-2V114.77c0-.56-.51-1-1.55-1.36s-1.55-.82-1.55-1.55c0-.43.35-.84,1-1.23a11.31,11.31,0,0,1,2.62-1c1.06-.28,2.21-.53,3.46-.74s2.46-.4,3.65-.55,2.23-.26,3.13-.33,1.53-.09,1.87-.09a20.3,20.3,0,0,1,4.85.58,14.38,14.38,0,0,1,4.3,1.78,9.66,9.66,0,0,1,3.1,3.1,8.36,8.36,0,0,1,1.19,4.55,7.25,7.25,0,0,1-.58,3.07,8.09,8.09,0,0,1-1.58,2.29,13.51,13.51,0,0,1-2.33,1.91c-.88.58-1.8,1.22-2.74,1.91a24.45,24.45,0,0,0,4.59,8.2,20.18,20.18,0,0,0,3.61,3.52c1.25.93,2.39,1.76,3.43,2.49a1.5,1.5,0,0,1,.71.87,1,1,0,0,1-.2.78,1.76,1.76,0,0,1-.74.58,2.09,2.09,0,0,1-.87.23Z" fill="#231815"/><path d="M1311.32,126.07a21.57,21.57,0,0,1,1.17-7.2,16.14,16.14,0,0,1,3.39-5.75,15.46,15.46,0,0,1,5.49-3.81,18.8,18.8,0,0,1,7.46-1.39,19.1,19.1,0,0,1,7.5,1.39,15.58,15.58,0,0,1,5.52,3.81,16.14,16.14,0,0,1,3.39,5.75,23,23,0,0,1,0,14.47,16.14,16.14,0,0,1-3.39,5.75,15.58,15.58,0,0,1-5.52,3.81,19.1,19.1,0,0,1-7.5,1.39,18.8,18.8,0,0,1-7.46-1.39,15.46,15.46,0,0,1-5.49-3.81,16.14,16.14,0,0,1-3.39-5.75A21.78,21.78,0,0,1,1311.32,126.07Zm26.82-.13a28.63,28.63,0,0,0-.46-5,15.72,15.72,0,0,0-1.51-4.55,9.22,9.22,0,0,0-2.88-3.3,7.62,7.62,0,0,0-4.46-1.26,7.31,7.31,0,0,0-4.39,1.26,9.34,9.34,0,0,0-2.81,3.3,15.73,15.73,0,0,0-1.52,4.55,28.62,28.62,0,0,0-.45,5,30.55,30.55,0,0,0,.45,5.24,15.79,15.79,0,0,0,1.52,4.62,9.68,9.68,0,0,0,2.81,3.32,7.12,7.12,0,0,0,4.39,1.3,7.42,7.42,0,0,0,4.46-1.3,9.42,9.42,0,0,0,2.88-3.36,16,16,0,0,0,1.51-4.62,29.14,29.14,0,0,0,.46-5.07Z" fill="#231815"/><path d="M1377.42,136.6h-.13l.55.26.62.26h.19l.26.65c.09.21.17.41.26.58a2.9,2.9,0,0,1-1.58,2.23,18,18,0,0,1-4.49,2c-1.43.34-2.85.63-4.27.87a24.13,24.13,0,0,1-4,.36,16.57,16.57,0,0,1-6.92-1.39,15.28,15.28,0,0,1-5.17-3.82,16.64,16.64,0,0,1-3.26-5.75,22.31,22.31,0,0,1-1.13-7.2,19.92,19.92,0,0,1,1.13-6.72,16.51,16.51,0,0,1,3.23-5.52,17,17,0,0,1,5-3.85,15.85,15.85,0,0,1,6.4-1.68,13.84,13.84,0,0,1,2.32.07c.78.08,1.5.19,2.17.32a15.71,15.71,0,0,0,1.74.26,1.91,1.91,0,0,0,1.07-.13c.21-.13.49-.31.84-.55a2,2,0,0,1,1.16-.35q.64,0,1.23.93a14.3,14.3,0,0,1,1.16,2.62c.47,1.12.79,2,1,2.55A3.7,3.7,0,0,1,1377,115a1.72,1.72,0,0,1-.35.77,2,2,0,0,1-.68.59,1.72,1.72,0,0,1-.78.19.74.74,0,0,1-.64-.39,9.16,9.16,0,0,0-.65-.68,4.65,4.65,0,0,0-.48-.38,5.19,5.19,0,0,1-.46-.36c-.15-.13-.35-.32-.61-.58a8.18,8.18,0,0,0-3.17-1.94,11.81,11.81,0,0,0-3.87-.64,6,6,0,0,0-4.07,1.45,11,11,0,0,0-2.72,3.65,20,20,0,0,0-1.51,4.75,25,25,0,0,0-.49,4.75,25.43,25.43,0,0,0,.52,5.26,13.13,13.13,0,0,0,1.68,4.36,8.6,8.6,0,0,0,3.1,3,9.57,9.57,0,0,0,4.78,1.09c.47,0,.92,0,1.32-.06a5.21,5.21,0,0,0,1-.19,3.29,3.29,0,0,0,.84-.72,1.56,1.56,0,0,0,.38-1V132a2,2,0,0,0-1.35-2q-2-.58-2-1.68a1.08,1.08,0,0,1,.65-1,3.38,3.38,0,0,1,1.55-.33h9.18a3.57,3.57,0,0,1,1.58.33,1.08,1.08,0,0,1,.68,1c0,.52-.59,1-1.75,1.61a2.92,2.92,0,0,0-.87.88,2.11,2.11,0,0,0-.36,1.19Z" fill="#231815"/><path d="M1408.05,143.78q-2,0-7.1-7.37-4.92-7.31-4.91-9.63c0-.56,1.18-1.31,3.55-2.26a4.85,4.85,0,0,0,2.65-2.36,8.62,8.62,0,0,0,.84-4,9.33,9.33,0,0,0-.29-2.29,6.62,6.62,0,0,0-.91-2,5,5,0,0,0-1.55-1.48,4.5,4.5,0,0,0-2.23-.65,6.38,6.38,0,0,0-1.55.19,6.11,6.11,0,0,0-1.45.58,3.58,3.58,0,0,0-1.1,1,2.17,2.17,0,0,0-.42,1.3V139a2,2,0,0,0,1.62,1.94c1.07.39,1.61.86,1.61,1.42,0,1-.43,1.43-1.29,1.43h-12.21c-.86,0-1.29-.48-1.29-1.43,0-.6.53-1,1.61-1.35a2.1,2.1,0,0,0,1.68-2V114.77c0-.56-.52-1-1.55-1.36s-1.55-.82-1.55-1.55c0-.43.34-.84,1-1.23a11.14,11.14,0,0,1,2.62-1c1.05-.28,2.21-.53,3.46-.74s2.46-.4,3.65-.55,2.23-.26,3.13-.33,1.53-.09,1.87-.09a20.3,20.3,0,0,1,4.85.58,14.49,14.49,0,0,1,4.3,1.78,9.66,9.66,0,0,1,3.1,3.1,8.45,8.45,0,0,1,1.19,4.55,7.25,7.25,0,0,1-.58,3.07,8.09,8.09,0,0,1-1.58,2.29,13.51,13.51,0,0,1-2.33,1.91c-.88.58-1.8,1.22-2.74,1.91a24.58,24.58,0,0,0,4.58,8.2,20.55,20.55,0,0,0,3.62,3.52c1.25.93,2.39,1.76,3.43,2.49a1.5,1.5,0,0,1,.71.87,1.05,1.05,0,0,1-.2.78,1.83,1.83,0,0,1-.74.58,2.09,2.09,0,0,1-.87.23Z" fill="#231815"/><path d="M1436.81,143.78a1.29,1.29,0,0,1-1.48-1.43c0-.56.36-1,1.09-1.22a5.13,5.13,0,0,0,1.88-1.1,1.24,1.24,0,0,0,.39-1.36l-1.56-5a11.8,11.8,0,0,0-3.1-.26,7.2,7.2,0,0,1-3.81,0c-1-.3-1.48-.86-1.48-1.68a1.43,1.43,0,0,1,.8-1.46,6.27,6.27,0,0,1,2.36-.35l1.91,0a1.89,1.89,0,0,0,1.52-.48,14,14,0,0,0-.59-2.17c-.34-1-.72-2.16-1.13-3.33s-.8-2.25-1.19-3.26l-.78-2c-.43,1-1,2.29-1.58,4s-1.37,3.84-2.23,6.29q-1.49,4.14-2.13,6.69a17.72,17.72,0,0,0-.65,3.46,1.78,1.78,0,0,0,1.36,1.81c.95.38,1.42.84,1.42,1.35a1.29,1.29,0,0,1-1.48,1.43H1418c-.48,0-.77-.13-.88-.39a3.16,3.16,0,0,1-.16-1.1c.95-.73,1.82-1.44,2.62-2.13a5.3,5.3,0,0,0,1.58-2.07q2.52-7.11,4.72-14.15t4.59-14.28a2.56,2.56,0,0,1,1.16-1.39,3.46,3.46,0,0,1,1.74-.48,7,7,0,0,1,2.3.42,2.29,2.29,0,0,1,1.51,1.26q2.53,7.11,5,14.11t4.94,14.12a2.89,2.89,0,0,0,1.07,1.29c.5.35,1.22.89,2.17,1.62l1.29.94c.38.28.58.55.58.8a1.26,1.26,0,0,1-1.42,1.43Z" fill="#231815"/><path d="M1481,119.29a31.58,31.58,0,0,0-2.13,3c-.74,1.16-1.5,2.35-2.3,3.58s-1.64,2.46-2.55,3.68a22,22,0,0,1-2.91,3.27,11,11,0,0,1-1.71-1.72q-1-1.19-2.13-2.61c-.75-1-1.51-1.94-2.26-3s-1.45-2-2.07-2.81-1.16-1.56-1.61-2.14a3.64,3.64,0,0,0-.88-.93,1.87,1.87,0,0,0-.09.55c0,.28,0,1,0,2.26V139a1.6,1.6,0,0,0,.49,1.1,4.91,4.91,0,0,0,1.32,1l1,.62a.81.81,0,0,1,.45.67,3.17,3.17,0,0,1-.38,1,1.06,1.06,0,0,1-1,.42h-8.27c-.86,0-1.29-.48-1.29-1.43,0-.34.53-.77,1.61-1.29s1.62-1.25,1.62-2.07V112.76a2.08,2.08,0,0,0-1.62-2c-1.08-.3-1.61-.78-1.61-1.42a2.81,2.81,0,0,0,.54-.87.78.78,0,0,1,.75-.55h6.46a8.23,8.23,0,0,1,1.68,1.55c.69.77,1.42,1.68,2.2,2.71s1.58,2.14,2.42,3.33l2.36,3.33c.73,1,1.39,1.93,2,2.71a7.77,7.77,0,0,0,1.32,1.49,3.65,3.65,0,0,0,1-1,26.1,26.1,0,0,0,1.51-2.19c.54-.87,1.1-1.79,1.68-2.78l1.59-2.72c.47-.81.85-1.49,1.13-2a3.41,3.41,0,0,1,.42-.74c1.63-2.42,3-3.62,4-3.62h7.43c.86,0,1.3.47,1.3,1.42,0,.34-.54.8-1.62,1.36a2.24,2.24,0,0,0-1.55,2.06V139q0,1.23,1.74,2.07a7.23,7.23,0,0,0,1,.52.77.77,0,0,1,.46.77,1.71,1.71,0,0,1-.3,1,1.09,1.09,0,0,1-1,.46h-12.08c-.82,0-1.23-.48-1.23-1.43q0-.51,1.62-1.29A2.43,2.43,0,0,0,1481,139Z" fill="#231815"/><path d="M1.77,111.61l-.26-1.34,9.79-6.46.3,1.5-2.74,1.77.93,4.79,3.2.63.28,1.43Zm6.7,0-.74-3.82-2,1.29c-.79.51-1.63,1-2.43,1.53v0c.93.15,1.9.33,2.88.52Z" fill="#c30d23"/><path d="M9.26,101a5.43,5.43,0,0,0,.63-2.86c-.06-1-.4-1.66-1.12-1.62-.88.06-.83,1.12-1,2.27-.16,1.42-.51,2.55-2,2.63s-2.34-1.18-2.44-2.89a6,6,0,0,1,.43-2.66l1.35-.08a5.59,5.59,0,0,0-.56,2.73c0,1,.38,1.59,1,1.55.84-.05.78-1.1.91-2.2.16-1.42.48-2.61,2-2.7,1.71-.1,2.44,1.39,2.53,3a6.08,6.08,0,0,1-.44,2.78Z" fill="#231815"/><path d="M0,90.14a.95.95,0,1,1,.91,1A.95.95,0,0,1,0,90.14Zm3.45.78,0-1.34,7.36.24,0,1.35Z" fill="#231815"/><path d="M10.79,85.12a2,2,0,0,1-1.72.57,2.06,2.06,0,0,1-1.66-1.2,3.86,3.86,0,0,1-.22-2.11,6.31,6.31,0,0,1,.39-1.54L7,80.76A1.64,1.64,0,0,0,5.71,81a2,2,0,0,0-.57,1.3,3.81,3.81,0,0,0,.44,2.33L4.27,84.5A4.65,4.65,0,0,1,4,82a3.2,3.2,0,0,1,1-2.1,2.47,2.47,0,0,1,2-.48l3.11.4c.44.06.79-.07.84-.47a.91.91,0,0,0,0-.44l1.12.14a1.88,1.88,0,0,1,0,.73,1.55,1.55,0,0,1-1,1.31v0a3.51,3.51,0,0,1,.52,2.35A2.91,2.91,0,0,1,10.79,85.12Zm-.82-4L8.61,81a5.73,5.73,0,0,0-.38,1.41c-.12.9,0,1.83.9,1.94.71.09,1.15-.47,1.25-1.26A3.06,3.06,0,0,0,10,81.15Z" fill="#231815"/><path d="M4.85,63.44l.45-1.29L17,61.48l-.5,1.45-3.26.15-1.6,4.61,2.45,2.16-.47,1.37Zm5.79,3.37,1.28-3.68-2.42.1c-.93,0-1.93.08-2.87.1v0c.73.61,1.47,1.25,2.23,1.91Z" fill="#c30d23"/><path d="M21.93,59l-.62,1.2-9.47-4.9.62-1.2.43.22,0,0a3.68,3.68,0,0,1,.38-2.17,3.6,3.6,0,0,1,5-1.41A3.73,3.73,0,0,1,20,55.89a4.23,4.23,0,0,1-1.19,1.42v0Zm-3-3.64a2.42,2.42,0,0,0-1.17-3.38,2.5,2.5,0,0,0-3.52.91,3.07,3.07,0,0,0-.28,2l3.66,1.89A4,4,0,0,0,19,55.32Z" fill="#231815"/><path d="M27.08,50l-.77,1.1L17.57,45l.77-1.11.39.28,0,0A3.7,3.7,0,0,1,19.42,42a3.6,3.6,0,0,1,5.18-.74,3.73,3.73,0,0,1,1,5.38,4.29,4.29,0,0,1-1.37,1.26v0Zm-2.46-4a2.42,2.42,0,0,0-.72-3.5,2.5,2.5,0,0,0-3.61.43,3.11,3.11,0,0,0-.54,1.95l3.38,2.36A4,4,0,0,0,24.62,46Z" fill="#231815"/><path d="M21.46,33l.88-1L31,39.43l-.88,1Z" fill="#231815"/><path d="M26.79,28.06a.94.94,0,1,1,1.34,1.33,1,1,0,0,1-1.34,0A.94.94,0,0,1,26.79,28.06Zm2,2.93.95-1L35,35.22l-.95,1Z" fill="#231815"/><path d="M36.66,29.11a2.52,2.52,0,0,0,3.53,0,4.16,4.16,0,0,0,1.38-2.33l.92,1.11A5.29,5.29,0,0,1,40.9,30.1a3.76,3.76,0,0,1-5.53-.43,3.68,3.68,0,0,1,.37-5.31A3.3,3.3,0,0,1,40.6,25a4.19,4.19,0,0,1,.4.55ZM36,28.27l3.35-2.77a2,2,0,0,0-2.86-.18A2.25,2.25,0,0,0,36,28.27Z" fill="#231815"/><path d="M45.13,17.59a4.14,4.14,0,0,1,1.7-.61l0,0-2.28-3.63,1.14-.72,6.1,9.69L50.67,23l-.24-.38h0A3.58,3.58,0,0,1,49,24.27a3.54,3.54,0,0,1-5-1.24A3.79,3.79,0,0,1,45.13,17.59Zm3.36,5.57a3.33,3.33,0,0,0,1.29-1.56L47.54,18a4.08,4.08,0,0,0-1.78.57,2.5,2.5,0,0,0-.71,3.63A2.4,2.4,0,0,0,48.49,23.16Z" fill="#231815"/><path d="M60.14,6.5,61.42,6l7.92,8.66-1.43.52-2.18-2.43-4.59,1.68L61,17.72l-1.37.5Zm1,6.62,3.66-1.34L63.24,10c-.62-.7-1.28-1.45-1.89-2.17h0c0,.94,0,1.93-.06,2.93Z" fill="#c30d23"/><path d="M70.8,6.8l1.32-.3.24,1h0a2.71,2.71,0,0,1,1.87-1.62,1.86,1.86,0,0,1,.48-.05l.31,1.3a2.2,2.2,0,0,0-.53.06A2.4,2.4,0,0,0,72.7,9l1.08,4.67L72.47,14Z" fill="#231815"/><path d="M80,9.87l-.48-3.56-1.35.18-.16-1.2,1.35-.18-.27-2,1.31-.4.29,2.21,2.2-.3.16,1.21-2.2.29.45,3.31c.12.91.37,1.72,1.33,1.59a2.18,2.18,0,0,0,1.06-.46l.17,1.26a3.3,3.3,0,0,1-1.29.45,2.16,2.16,0,0,1-1.75-.46A2.87,2.87,0,0,1,80,9.87Z" fill="#231815"/><path d="M87.75.8a.94.94,0,1,1-.89,1A.94.94,0,0,1,87.75.8Zm-.49,3.5,1.34-.06L89,11.6l-1.35.07Z" fill="#231815"/><path d="M94,5.33l-1.17,0,.06-1.21,1.17,0,.07-1.4A3,3,0,0,1,94.91.53,2.44,2.44,0,0,1,96.66,0a4.13,4.13,0,0,1,1.1.21L97.7,1.42a5.42,5.42,0,0,0-1-.19c-.93,0-1.13.58-1.16,1.36l-.08,1.6,1.88.09-.06,1.21L95.36,5.4l-.3,6.15-1.35-.07Z" fill="#231815"/><rect x="97.03" y="7.69" width="7.37" height="1.35" transform="translate(83.97 108.03) rotate(-85.21)" fill="#231815"/><path d="M101.32,1.23a.94.94,0,0,1,.86,1,.94.94,0,1,1-1.88-.16A.93.93,0,0,1,101.32,1.23Z" fill="#231815"/><path d="M109.76,12.94a4.77,4.77,0,0,1-2.26.12,3.77,3.77,0,0,1-3.28-4.44,3.9,3.9,0,0,1,4.7-3.13,4.63,4.63,0,0,1,1.88.8l-.24,1.38a3.89,3.89,0,0,0-1.91-1,2.59,2.59,0,0,0-3.09,2.17,2.54,2.54,0,0,0,2.23,3,3.35,3.35,0,0,0,2.22-.34Z" fill="#231815"/><path d="M115.48,7.14l1.3.36-2,7.11-1.3-.36ZM117.06,4a1,1,0,0,1,.66,1.16A.94.94,0,1,1,117.06,4Z" fill="#231815"/><path d="M119.42,15.64a2,2,0,0,1-.14-1.8,2,2,0,0,1,1.55-1.34,3.83,3.83,0,0,1,2.1.28,6.15,6.15,0,0,1,1.4.74l.22-.57a1.62,1.62,0,0,0,0-1.29,2,2,0,0,0-1.13-.86,3.84,3.84,0,0,0-2.37-.12l.47-1.23a4.64,4.64,0,0,1,2.52.29,3.23,3.23,0,0,1,1.82,1.41,2.5,2.5,0,0,1,0,2.07l-1.11,2.92c-.16.42-.13.79.25.93a1,1,0,0,0,.44.06l-.4,1.05a1.9,1.9,0,0,1-.72-.13,1.57,1.57,0,0,1-1-1.24h0a3.42,3.42,0,0,1-2.4-.05A3,3,0,0,1,119.42,15.64Zm4,.13.5-1.28a5.61,5.61,0,0,0-1.28-.7c-.85-.32-1.79-.39-2.1.42s.19,1.23.93,1.51A3,3,0,0,0,123.47,15.77Z" fill="#231815"/><path d="M133.32,9.47l1.21.6-5.1,10.25-1.21-.6Z" fill="#231815"/><path d="M144.32,16.52l1.17.81-6.15,8.93-1.17-.8Z" fill="#00913a"/><path d="M147.68,23.21l1,.87-.61.71,0,0a3.67,3.67,0,0,1,2.68.83,2.5,2.5,0,0,1,1,1.88,3,3,0,0,1-.94,2.06l-3,3.47-1-.87,2.78-3.28a2.29,2.29,0,0,0,.71-1.37,1.58,1.58,0,0,0-.59-1.13,3.15,3.15,0,0,0-2.56-.56l-3.27,3.85-1-.87Z" fill="#231815"/><path d="M153.19,34.74l2.62-2.46-.93-1,.88-.83.94,1,1.46-1.37,1.09.82-1.63,1.53,1.52,1.62-.89.83-1.52-1.62-2.43,2.29c-.67.63-1.19,1.3-.52,2a2.17,2.17,0,0,0,1,.59l-.93.87a3.15,3.15,0,0,1-1.11-.78,2.18,2.18,0,0,1-.65-1.7A2.9,2.9,0,0,1,153.19,34.74Z" fill="#231815"/><path d="M159.28,40.57a2.52,2.52,0,0,0-.17,3.53,4.27,4.27,0,0,0,2.26,1.49l-1.15.86a5.21,5.21,0,0,1-2.13-1.7,3.76,3.76,0,0,1,.69-5.5,3.67,3.67,0,0,1,5.28.63,3.3,3.3,0,0,1-.84,4.83,5.48,5.48,0,0,1-.57.37Zm.87-.62,2.6,3.48a2,2,0,0,0,.32-2.84A2.25,2.25,0,0,0,160.15,40Z" fill="#231815"/><path d="M171.91,44.48l.7,1.16-9.79,5.92-.7-1.15Z" fill="#231815"/><path d="M175.16,50.21l.61,1.2-10.18,5.22-.62-1.2Z" fill="#231815"/><path d="M174.25,57.75l.53,1.24L168,61.88l-.53-1.24Zm3.46-.74a.94.94,0,1,1-1.23-.5A.94.94,0,0,1,177.71,57Z" fill="#231815"/><path d="M168.36,66.83a4.35,4.35,0,0,0,0,2.45,2.14,2.14,0,0,0,2.83,1.59l.52-.16v0a3.69,3.69,0,0,1-1.14-1.75A3.56,3.56,0,0,1,173,64.39a3.7,3.7,0,0,1,4.82,2.51,4.33,4.33,0,0,1,.15,1.91l.6,1.18-7,2.16c-2.06.64-3.76-.34-4.43-2.5a5.16,5.16,0,0,1-.16-2.4Zm3.36,1.94a3.1,3.1,0,0,0,1.12,1.58l3.88-1.2a3.87,3.87,0,0,0-.07-1.93,2.59,2.59,0,0,0-4.93,1.55Z" fill="#231815"/><path d="M175.93,76.62a2.54,2.54,0,0,0-1.76,3.07,4.25,4.25,0,0,0,1.33,2.36l-1.42.24A5.26,5.26,0,0,1,173,79.81a3.76,3.76,0,0,1,3.12-4.58,3.68,3.68,0,0,1,4.42,3,3.31,3.31,0,0,1-2.95,3.91l-.67.07Zm1-.15.73,4.29a2,2,0,0,0,1.58-2.39A2.25,2.25,0,0,0,177,76.47Z" fill="#231815"/><path d="M181.39,86.29l.05,1.35-.92,0,0,0a3.71,3.71,0,0,1,1.22,2.53,2.6,2.6,0,0,1-.73,2,3,3,0,0,1-2.15.7l-4.55.19-.06-1.35,4.3-.18a2.26,2.26,0,0,0,1.48-.4,1.56,1.56,0,0,0,.44-1.2,3.13,3.13,0,0,0-1.33-2.26l-5,.21L174,86.59Z" fill="#231815"/><path d="M174,103.09a4.69,4.69,0,0,1-.32-2.24,3.77,3.77,0,0,1,4.12-3.67,3.89,3.89,0,0,1,3.54,4.39,4.44,4.44,0,0,1-.62,2l-1.39-.11a3.8,3.8,0,0,0,.79-2,2.57,2.57,0,0,0-2.44-2.87,2.54,2.54,0,0,0-2.79,2.49,3.49,3.49,0,0,0,.55,2.18Z" fill="#231815"/><path d="M176.21,108.38a2.54,2.54,0,0,0-2.76,2.22,4.26,4.26,0,0,0,.38,2.68l-1.4-.29a5.22,5.22,0,0,1-.15-2.72,3.77,3.77,0,0,1,4.58-3.13,3.68,3.68,0,0,1,3,4.38,3.29,3.29,0,0,1-4.17,2.56,3.59,3.59,0,0,1-.65-.18Zm1,.25-.88,4.25a2,2,0,0,0,2.35-1.64A2.26,2.26,0,0,0,177.24,108.63Z" fill="#231815"/><path d="M91.54,47.22h1.94V38.53a14.54,14.54,0,0,0-1.94.17Z" fill="#007bc1"/><path d="M91.54,62.47v6.14a13.18,13.18,0,0,0,1.94.24V62.47H100a4.53,4.53,0,0,0-3-1.94H93.48v-.36H91.54v.36H87.43l.8,1.94Z" fill="#007bc1"/><path d="M120.19,160.47a72.16,72.16,0,0,1-15.73,4.5c5.85-2.93,11.19-8,15.73-14.6V147c-7.08,11.43-16.44,18.56-26.71,19V134.32H91.54v31.62c-15.61-.64-29.1-16.76-35.74-40H87.27L86.51,124H55.26a111.25,111.25,0,0,1-2.5-12.29h-2A114.62,114.62,0,0,0,53.28,124H43.21L42.44,126H53.81c5.3,18.76,15,33.13,26.75,39a72.85,72.85,0,0,1-48-30.65H30.21a74.57,74.57,0,0,0,90,28.25Z" fill="#007bc1"/><path d="M159.7,60.7v-.17h-.09a74.64,74.64,0,0,0-134.2,0h-.09v.17a74.69,74.69,0,0,0-4.48,53.48l1.21-3a72.89,72.89,0,0,1-2.25-17H29l.8-1.94h-10a72.35,72.35,0,0,1,6.83-29.8H42.05l.8-1.94H27.58a72.92,72.92,0,0,1,53-39A40.72,40.72,0,0,0,67.23,32.84h2.42c6.29-7.47,13.8-12,21.89-12.3v4.35c.64-.07,1.29-.11,1.94-.13V20.54c15.61.65,29.1,16.76,35.75,40H114.58a15.14,15.14,0,0,1,.39,1.94h14.79a112.56,112.56,0,0,1,2.47,12h2a113.1,113.1,0,0,0-2.44-12h26.65a72.35,72.35,0,0,1,6.83,29.8H144.17v1.94h21.05a72.31,72.31,0,0,1-6.83,29.8H144.17V126h13.27a73.22,73.22,0,0,1-13.27,18.41v2.72A75,75,0,0,0,159.61,126h.09v-.17a74.61,74.61,0,0,0,0-65.08Zm-28.49-.17c-5.3-18.76-15-33.12-26.75-39a72.92,72.92,0,0,1,53,39Z" fill="#007bc1"/><polygon points="101.2 94.21 120.19 94.21 120.19 92.27 100.41 92.27 101.2 94.21" fill="#007bc1"/><polygon points="120.19 124.01 113.39 124.01 114.18 125.95 120.19 125.95 120.19 124.01" fill="#007bc1"/><path d="M110.86,129.79H93.63l-8.81-22.6H45l-8.94,22.6H19.33L57.24,37.37H73.07ZM50.22,93.92H79.58L74.22,80C71,71.71,68,63.54,65,55.24h-.25c-3.07,8.55-6,16.47-9.19,24.76Z" fill="#c30d23"/><path d="M124.08,78.4h16.21v92.42H124.08Z" fill="#00913a"/><path d="M80.31,66.27c4.4,3.49,9.29,5.52,13.9,5.52,5.38,0,9.15-2.73,9.15-7.41,0-4.26-3.14-7.12-9.78-7.12H88.69V50.13h4.68c5.87,0,8.94-3,8.94-7.26,0-4.54-3.49-7.26-8.59-7.26a20.39,20.39,0,0,0-10.4,3.14V30.44a21.57,21.57,0,0,1,11-2.8c9.78,0,16.9,5.8,16.9,14a11.47,11.47,0,0,1-7.75,11.25V53c5.94,1.61,8.8,6.49,8.8,11.94,0,8.87-7.68,14.81-17.74,14.81-5.59,0-11-1.82-14.18-4.33Z" fill="#c30d23"/></g></g></svg>