<?xml version="1.0" encoding="utf-8"?>
<!-- Generator: Adobe Illustrator 26.0.3, SVG Export Plug-In . SVG Version: 6.00 Build 0)  -->
<svg version="1.1" id="レイヤー_1" xmlns="http://www.w3.org/2000/svg" xmlns:xlink="http://www.w3.org/1999/xlink" x="0px"
	 y="0px" width="190px" height="178.6px" viewBox="0 0 190 178.6" enable-background="new 0 0 190 178.6" xml:space="preserve">
<g>
	<path fill="#C30D23" d="M1.9,116.7l-0.3-1.4l10.2-6.8l0.3,1.6L9.3,112l1,5l3.4,0.7l0.3,1.5L1.9,116.7z M8.9,116.7l-0.8-4L6,114.1
		c-0.8,0.5-1.7,1.1-2.5,1.6l0,0c1,0.2,2,0.3,3,0.5L8.9,116.7z"/>
	<path fill="#231815" d="M9.7,105.6c0.5-0.9,0.7-2,0.7-3c-0.1-1.1-0.4-1.7-1.2-1.7c-0.9,0.1-0.9,1.2-1,2.4c-0.2,1.5-0.5,2.7-2,2.8
		c-1.6,0.1-2.4-1.2-2.5-3c-0.1-0.9,0.1-2,0.4-2.8l1.4-0.1c-0.4,0.9-0.6,2-0.6,2.9c0.1,1,0.4,1.7,1.1,1.6c0.9-0.1,0.8-1.1,0.9-2.3
		c0.2-1.5,0.5-2.7,2.1-2.8c1.8-0.1,2.5,1.5,2.6,3.1c0.1,1-0.1,2.1-0.5,2.9L9.7,105.6z"/>
	<path fill="#231815" d="M0,94.2c0-0.5,0.5-1,1-1c0.5,0,1,0.5,1,1c0,0.5-0.5,1-1,1C0.4,95.2,0,94.8,0,94.2z M3.6,95.1l0-1.4l7.7,0.3
		l0,1.4L3.6,95.1z"/>
	<path fill="#231815" d="M11.3,89c-0.4,0.4-1.1,0.7-1.8,0.6c-0.9-0.1-1.4-0.6-1.7-1.3c-0.3-0.6-0.3-1.4-0.2-2.2
		c0.1-0.6,0.2-1.1,0.4-1.6l-0.6-0.1c-0.6-0.1-1,0-1.3,0.3c-0.3,0.3-0.5,0.7-0.6,1.4c-0.1,1,0.1,1.8,0.5,2.4l-1.4-0.2
		c-0.3-0.6-0.5-1.5-0.3-2.6c0.1-0.9,0.4-1.7,1-2.2c0.5-0.4,1.2-0.6,2.1-0.5l3.2,0.4c0.5,0.1,0.8-0.1,0.9-0.5c0-0.2,0-0.3-0.1-0.5
		l1.2,0.1c0.1,0.2,0.1,0.5,0,0.8c-0.1,0.6-0.4,1.1-1,1.4l0,0c0.3,0.5,0.7,1.4,0.5,2.5C12,87.9,11.7,88.5,11.3,89z M10.4,84.8L9,84.7
		c-0.2,0.4-0.3,1-0.4,1.5c-0.1,0.9,0,1.9,0.9,2c0.7,0.1,1.2-0.5,1.3-1.3C10.9,86.1,10.7,85.4,10.4,84.8z"/>
	<path fill="#C30D23" d="M5.1,66.3L5.5,65l12.3-0.7l-0.5,1.5L13.9,66l-1.7,4.8l2.6,2.3l-0.5,1.4L5.1,66.3z M11.1,69.9l1.3-3.8
		l-2.5,0.1c-1,0-2,0.1-3,0.1l0,0c0.8,0.6,1.5,1.3,2.3,2L11.1,69.9z"/>
	<path fill="#231815" d="M22.9,61.6l-0.6,1.3l-9.9-5.1l0.6-1.3l0.4,0.2l0,0c-0.1-0.6,0-1.5,0.4-2.3c1-1.8,3.1-2.6,5.3-1.5
		c2.2,1.1,2.8,3.5,1.8,5.4c-0.4,0.7-0.8,1.2-1.2,1.5l0,0L22.9,61.6z M19.8,57.8c0.7-1.4,0.2-2.8-1.2-3.5c-1.4-0.7-3-0.4-3.7,0.9
		c-0.3,0.6-0.4,1.4-0.3,2.1l3.8,2C18.9,59,19.5,58.5,19.8,57.8z"/>
	<path fill="#231815" d="M28.3,52.2l-0.8,1.2L18.4,47l0.8-1.2l0.4,0.3l0,0c0-0.7,0.2-1.4,0.7-2.2c1.2-1.7,3.5-2.1,5.4-0.8
		c2,1.4,2.3,3.8,1,5.6c-0.4,0.6-1,1-1.4,1.3l0,0L28.3,52.2z M25.7,48c0.9-1.3,0.5-2.8-0.7-3.7c-1.3-0.9-2.9-0.8-3.8,0.5
		c-0.4,0.6-0.6,1.3-0.6,2l3.5,2.5C24.7,49.1,25.3,48.7,25.7,48z"/>
	<path fill="#231815" d="M22.4,34.5l0.9-1.1l9.1,7.8l-0.9,1.1L22.4,34.5z"/>
	<path fill="#231815" d="M28,29.3c0.4-0.4,1-0.4,1.4,0c0.4,0.4,0.4,1,0,1.4c-0.4,0.4-1,0.4-1.4,0C27.6,30.3,27.6,29.7,28,29.3z
		 M30.1,32.4l1-1l5.5,5.4l-1,1L30.1,32.4z"/>
	<path fill="#231815" d="M38.3,30.4c1.1,1,2.5,1,3.7,0c0.8-0.7,1.2-1.6,1.4-2.4l1,1.2c-0.3,0.8-0.9,1.7-1.7,2.3
		C40.9,33,38.5,32.9,37,31c-1.5-1.9-1.2-4.2,0.4-5.5c1.4-1.2,3.5-1.2,5.1,0.6c0.1,0.2,0.3,0.4,0.4,0.6L38.3,30.4z M37.6,29.6
		l3.5-2.9c-1.1-1.1-2.3-0.8-3-0.2C37.4,27.1,36.9,28.3,37.6,29.6z"/>
	<path fill="#231815" d="M47.2,18.4c0.6-0.4,1.2-0.6,1.8-0.6l0,0l-2.4-3.8l1.2-0.8l6.4,10.1L53,24.1l-0.3-0.4l0,0
		c-0.2,0.6-0.7,1.2-1.5,1.7c-1.8,1.1-4,0.7-5.3-1.3C44.7,22.1,45.1,19.7,47.2,18.4z M50.7,24.2c0.6-0.4,1.1-1,1.3-1.6l-2.3-3.7
		c-0.6,0.1-1.3,0.2-1.9,0.6c-1.4,0.9-1.6,2.5-0.7,3.8C47.9,24.6,49.4,25.1,50.7,24.2z"/>
	<path fill="#C30D23" d="M62.9,6.8l1.3-0.5l8.3,9L71,15.9l-2.3-2.5l-4.8,1.7l-0.1,3.4L62.4,19L62.9,6.8z M64,13.7l3.8-1.4l-1.7-1.9
		c-0.6-0.7-1.3-1.5-2-2.3l0,0c0,1,0,2-0.1,3.1L64,13.7z"/>
	<path fill="#231815" d="M74,7.1l1.4-0.3l0.3,1.1l0,0c0.3-0.9,1.1-1.5,2-1.7c0.2,0,0.3-0.1,0.5-0.1l0.3,1.4c-0.2,0-0.4,0-0.5,0.1
		c-1,0.2-1.6,0.9-1.9,1.8l1.1,4.9l-1.4,0.3L74,7.1z"/>
	<path fill="#231815" d="M83.7,10.3l-0.5-3.7l-1.4,0.2l-0.2-1.3L83,5.3l-0.3-2.1l1.4-0.4l0.3,2.3l2.3-0.3l0.2,1.3l-2.3,0.3L85,9.9
		c0.1,0.9,0.4,1.8,1.4,1.7c0.4-0.1,0.8-0.3,1.1-0.5l0.2,1.3c-0.3,0.2-0.8,0.4-1.3,0.5c-0.6,0.1-1.3,0-1.8-0.5
		C84.1,12,83.8,11.4,83.7,10.3z"/>
	<path fill="#231815" d="M91.8,0.8c0.5,0,1,0.4,1,0.9c0,0.5-0.4,1-0.9,1c-0.5,0-1-0.4-1-0.9C90.8,1.3,91.2,0.9,91.8,0.8z M91.2,4.5
		l1.4-0.1l0.4,7.7l-1.4,0.1L91.2,4.5z"/>
	<path fill="#231815" d="M98.3,5.6l-1.2-0.1l0.1-1.3l1.2,0.1l0.1-1.5c0-1,0.2-1.8,0.8-2.3c0.5-0.4,1.2-0.6,1.8-0.6
		c0.4,0,0.9,0.1,1.1,0.2l-0.1,1.3c-0.3-0.1-0.8-0.2-1.1-0.2c-1,0-1.2,0.6-1.2,1.4l-0.1,1.7l2,0.1l-0.1,1.3l-2-0.1l-0.3,6.4L98,12
		L98.3,5.6z"/>
	<g>
		
			<rect x="101.5" y="8" transform="matrix(8.355051e-02 -0.9965 0.9965 8.355051e-02 87.7968 112.9528)" fill="#231815" width="7.7" height="1.4"/>
		<path fill="#231815" d="M105.9,1.3c0.5,0,0.9,0.5,0.9,1.1s-0.5,0.9-1.1,0.9c-0.5,0-0.9-0.5-0.9-1.1C104.9,1.6,105.4,1.2,105.9,1.3
			z"/>
	</g>
	<path fill="#231815" d="M114.8,13.5c-0.7,0.2-1.6,0.3-2.4,0.1c-2.4-0.4-3.8-2.4-3.4-4.6c0.4-2.3,2.6-3.7,4.9-3.3
		c0.8,0.1,1.5,0.5,2,0.8L115.6,8c-0.6-0.5-1.3-0.9-2-1c-1.7-0.3-3,0.7-3.2,2.3c-0.3,1.6,0.7,2.9,2.3,3.1c0.9,0.2,1.7,0,2.3-0.4
		L114.8,13.5z"/>
	<path fill="#231815" d="M120.7,7.5l1.4,0.4l-2,7.4l-1.4-0.4L120.7,7.5z M122.4,4.2c0.5,0.1,0.8,0.7,0.7,1.2s-0.7,0.8-1.2,0.7
		c-0.5-0.1-0.8-0.7-0.7-1.2C121.3,4.3,121.9,4,122.4,4.2z"/>
	<path fill="#231815" d="M124.9,16.4c-0.3-0.5-0.4-1.2-0.2-1.9c0.3-0.8,0.9-1.2,1.6-1.4c0.7-0.1,1.5,0,2.2,0.3
		c0.6,0.2,1,0.5,1.5,0.8l0.2-0.6c0.2-0.5,0.2-1,0-1.3c-0.2-0.4-0.6-0.7-1.2-0.9c-0.9-0.3-1.8-0.3-2.5-0.1l0.5-1.3
		c0.7-0.1,1.6-0.1,2.6,0.3c0.9,0.3,1.6,0.8,1.9,1.5c0.3,0.5,0.3,1.3,0,2.2l-1.2,3.1c-0.2,0.4-0.1,0.8,0.3,1c0.1,0.1,0.3,0.1,0.5,0.1
		l-0.4,1.1c-0.2,0-0.5,0-0.8-0.1c-0.6-0.2-1-0.7-1.1-1.3l0,0c-0.6,0.2-1.5,0.3-2.5-0.1C125.8,17.3,125.2,16.9,124.9,16.4z
		 M129.1,16.5l0.5-1.3c-0.4-0.3-0.9-0.6-1.3-0.7c-0.9-0.3-1.9-0.4-2.2,0.4c-0.3,0.7,0.2,1.3,1,1.6C127.7,16.7,128.5,16.7,129.1,16.5
		z"/>
	<path fill="#231815" d="M139.4,9.9l1.3,0.6l-5.3,10.7l-1.3-0.6L139.4,9.9z"/>
	<path fill="#00913A" d="M150.9,17.3l1.2,0.8l-6.4,9.3l-1.2-0.8L150.9,17.3z"/>
	<path fill="#231815" d="M154.4,24.3l1.1,0.9l-0.6,0.7l0,0c0.9-0.1,2,0.2,2.8,0.9c0.6,0.5,1,1.2,1,2c0,0.6-0.2,1.2-1,2.1l-3.1,3.6
		l-1.1-0.9l2.9-3.4c0.5-0.6,0.7-1,0.7-1.4c0-0.5-0.3-0.9-0.6-1.2c-0.7-0.6-1.8-0.8-2.7-0.6l-3.4,4l-1.1-0.9L154.4,24.3z"/>
	<path fill="#231815" d="M160.2,36.3l2.7-2.6l-1-1l0.9-0.9l1,1l1.5-1.4l1.1,0.9l-1.7,1.6l1.6,1.7l-0.9,0.9l-1.6-1.7l-2.5,2.4
		c-0.7,0.7-1.2,1.4-0.5,2.1c0.3,0.3,0.7,0.5,1,0.6l-1,0.9c-0.3-0.1-0.8-0.4-1.2-0.8c-0.4-0.4-0.8-1-0.7-1.8
		C159.1,37.6,159.4,37.1,160.2,36.3z"/>
	<path fill="#231815" d="M166.5,42.4c-1.1,1.1-1.1,2.5-0.2,3.7c0.6,0.9,1.5,1.3,2.4,1.6l-1.2,0.9c-0.8-0.3-1.6-1-2.2-1.8
		c-1.4-1.9-1.2-4.3,0.7-5.7c1.9-1.5,4.3-1,5.5,0.7c1.1,1.5,1.1,3.6-0.9,5c-0.2,0.1-0.4,0.3-0.6,0.4L166.5,42.4z M167.4,41.8l2.7,3.6
		c1.2-1,0.9-2.2,0.3-3C169.9,41.6,168.7,41.1,167.4,41.8z"/>
	<path fill="#231815" d="M179.7,46.5l0.7,1.2l-10.2,6.2l-0.7-1.2L179.7,46.5z"/>
	<path fill="#231815" d="M183.1,52.5l0.6,1.3l-10.7,5.5l-0.6-1.3L183.1,52.5z"/>
	<path fill="#231815" d="M182.2,60.4l0.6,1.3l-7.1,3l-0.6-1.3L182.2,60.4z M185.8,59.6c0.2,0.5,0,1.1-0.5,1.3
		c-0.5,0.2-1.1,0-1.3-0.5c-0.2-0.5,0-1.1,0.5-1.3C185,58.9,185.6,59.1,185.8,59.6z"/>
	<path fill="#231815" d="M176,69.9c-0.2,0.8-0.3,1.7,0,2.6c0.4,1.4,1.6,2.1,3,1.7l0.5-0.2l0,0c-0.5-0.4-0.9-1.1-1.2-1.8
		c-0.6-2,0.4-4.1,2.6-4.7c2.1-0.6,4.3,0.2,5,2.6c0.2,0.8,0.2,1.4,0.2,2l0.6,1.2l-7.3,2.3c-2.2,0.7-3.9-0.4-4.6-2.6
		c-0.3-0.9-0.3-1.8-0.2-2.5L176,69.9z M179.5,71.9c0.2,0.7,0.7,1.3,1.2,1.7l4.1-1.3c0.1-0.6,0.1-1.3-0.1-2c-0.5-1.5-1.9-2.1-3.3-1.6
		C179.9,69.1,179.1,70.4,179.5,71.9z"/>
	<path fill="#231815" d="M183.9,80.1c-1.5,0.5-2.1,1.7-1.8,3.2c0.2,1.1,0.7,1.9,1.4,2.5L182,86c-0.5-0.6-1-1.6-1.2-2.6
		c-0.4-2.3,0.9-4.4,3.3-4.8c2.4-0.4,4.3,1.1,4.6,3.1c0.3,1.9-0.7,3.7-3.1,4.1c-0.2,0-0.5,0.1-0.7,0.1L183.9,80.1z M185,80l0.8,4.5
		c1.5-0.4,1.8-1.6,1.7-2.5C187.3,80.9,186.5,80,185,80z"/>
	<path fill="#231815" d="M189.7,90.2l0.1,1.4l-1,0l0,0c0.7,0.6,1.2,1.6,1.3,2.6c0,0.8-0.2,1.6-0.8,2.1c-0.5,0.4-1.1,0.7-2.2,0.7
		l-4.8,0.2l-0.1-1.4l4.5-0.2c0.8,0,1.3-0.2,1.6-0.4c0.4-0.3,0.5-0.8,0.5-1.3c0-0.9-0.6-1.8-1.4-2.4l-5.3,0.2l-0.1-1.4L189.7,90.2z"
		/>
	<path fill="#231815" d="M182,107.8c-0.3-0.7-0.4-1.6-0.3-2.3c0.2-2.4,2-4,4.3-3.8c2.4,0.2,3.9,2.2,3.7,4.6c-0.1,0.8-0.3,1.5-0.7,2
		l-1.5-0.1c0.5-0.6,0.8-1.3,0.8-2.1c0.1-1.7-1-2.9-2.6-3c-1.6-0.1-2.8,1-2.9,2.6c-0.1,0.9,0.2,1.7,0.6,2.3L182,107.8z"/>
	<path fill="#231815" d="M184.2,113.3c-1.5-0.1-2.6,0.8-2.9,2.3c-0.2,1,0,2,0.4,2.8l-1.5-0.3c-0.3-0.8-0.4-1.9-0.1-2.8
		c0.5-2.3,2.4-3.8,4.8-3.3c2.4,0.5,3.6,2.5,3.2,4.6c-0.4,1.8-2,3.2-4.4,2.7c-0.2,0-0.5-0.1-0.7-0.2L184.2,113.3z M185.3,113.6
		l-0.9,4.4c1.5,0.2,2.3-0.8,2.5-1.7C187.1,115.3,186.7,114.1,185.3,113.6z"/>
	<g>
		<path fill="#007BC1" d="M95.7,49.4h1.9c0,0,0.1,0,0.1,0v-9.1c-0.7,0-1.3,0.1-2,0.2V49.4z"/>
		<path fill="#007BC1" d="M95.7,65.3v6.4c0.7,0.1,1.4,0.2,2,0.3v-6.7h6.8c-0.6-1-1.6-1.6-3.1-2h-3.6v-0.4h-2v0.4h-4.3l0.8,2H95.7z"
			/>
		<path fill="#007BC1" d="M125.7,167.8c-5.2,2.2-10.7,3.8-16.5,4.7c6.1-3.1,11.7-8.3,16.5-15.3v-3.6c-7.4,12-17.2,19.4-27.9,19.8
			v-33.1h-2v33.1c-16.3-0.7-30.4-17.5-37.4-41.8h32.9l-0.8-2H57.8c-1.1-4.1-2-8.4-2.6-12.9h-2c0.7,4.4,1.5,8.7,2.6,12.9H45.2l-0.8,2
			h11.9c5.5,19.6,15.7,34.6,28,40.8C63.5,169,45.5,157.1,34,140.4h-2.4c14,21.1,38,35.1,65.1,35.1c10.2,0,20-2,28.9-5.6V167.8z"/>
		<path fill="#007BC1" d="M167,63.5v-0.2h-0.1c-12.7-25.9-39.4-43.9-70.2-43.9S39.3,37.3,26.6,63.3h-0.1v0.2
			c-5,10.3-7.8,21.8-7.8,34c0,7.6,1.1,14.9,3.1,21.9l1.3-3.1c-1.5-5.7-2.3-11.7-2.4-17.8h9.6l0.8-2H20.7c0.1-11.1,2.7-21.7,7.1-31.2
			H44l0.8-2h-16C39.6,42.1,60,26.5,84.2,22.5c-5.1,2.5-9.8,6.6-13.9,11.8h2.5c6.6-7.8,14.4-12.5,22.9-12.9V26c0.7-0.1,1.3-0.1,2-0.1
			v-4.4c16.3,0.7,30.4,17.5,37.4,41.8h-15.3c0.2,0.7,0.3,1.3,0.4,2h15.5c1.1,4,1.9,8.2,2.6,12.6h2c-0.7-4.4-1.5-8.6-2.6-12.6h27.9
			c4.4,9.5,7,20,7.1,31.2h-22v2h22c-0.1,11.1-2.7,21.7-7.1,31.2h-14.9v2h13.9c-3.6,7.1-8.3,13.6-13.9,19.2v2.8
			c6.6-6.3,12.1-13.8,16.1-22.1h0.1v-0.2c5-10.3,7.8-21.8,7.8-34S172,73.8,167,63.5z M137.2,63.3c-5.5-19.6-15.7-34.6-28-40.8
			c24.3,4,44.7,19.6,55.4,40.8H137.2z"/>
		<polygon fill="#007BC1" points="105.8,98.5 125.7,98.5 125.7,96.5 105,96.5 		"/>
		<polygon fill="#007BC1" points="125.7,129.7 118.6,129.7 119.4,131.7 125.7,131.7 		"/>
	</g>
	<g>
		<path fill="#C30D23" d="M115.9,135.7h-18l-9.2-23.6H47l-9.3,23.6H20.2l39.6-96.6h16.6L115.9,135.7z M52.5,98.2h30.7l-5.6-14.5
			C74.3,75,71.1,66.4,68,57.8h-0.3c-3.2,8.9-6.3,17.2-9.6,25.9L52.5,98.2z"/>
	</g>
	<g>
		<path fill="#00913A" d="M129.7,82h17v96.6h-17V82z"/>
	</g>
	<g>
		<path fill="#C30D23" d="M84,69.3c4.6,3.7,9.7,5.8,14.5,5.8c5.6,0,9.6-2.8,9.6-7.7c0-4.5-3.3-7.4-10.2-7.4h-5.1v-7.4h4.9
			c6.1,0,9.3-3.1,9.3-7.6c0-4.7-3.7-7.6-9-7.6c-3.8,0-7.9,1.4-10.9,3.3v-8.7c3-1.8,7.2-2.9,11.5-2.9c10.2,0,17.7,6.1,17.7,14.6
			c0,5.6-3.1,10.1-8.1,11.8v0.1c6.2,1.7,9.2,6.8,9.2,12.5c0,9.3-8,15.5-18.5,15.5c-5.8,0-11.5-1.9-14.8-4.5V69.3z"/>
	</g>
</g>
</svg>
